<svg xmlns="http://www.w3.org/2000/svg" width="442" height="528" viewBox="0 0 442 528">
    <defs>
        <linearGradient id="a" x1="100.234%" x2="-14.455%" y1="32.384%" y2="76.177%">
            <stop offset="3.514%" stop-color="#FEA45D"/>
            <stop offset="100%" stop-color="#FE3C9A"/>
        </linearGradient>
        <linearGradient id="b" x1="-3.7%" x2="96.335%" y1="50.004%" y2="50.004%">
            <stop offset="3.514%" stop-color="#FEA45D"/>
            <stop offset="100%" stop-color="#FE3C9A"/>
        </linearGradient>
        <linearGradient id="c" x1="100.01%" x2="-.018%" y1="50.022%" y2="50.022%">
            <stop offset="3.514%" stop-color="#FEA45D"/>
            <stop offset="100%" stop-color="#FE3C9A"/>
        </linearGradient>
        <linearGradient id="d" x1="99.958%" x2="0%" y1="50.016%" y2="50.016%">
            <stop offset="3.514%" stop-color="#FEA45D"/>
            <stop offset="100%" stop-color="#FE3C9A"/>
        </linearGradient>
        <linearGradient id="e" x1="93.852%" x2="43.239%" y1="-7.192%" y2="54.905%">
            <stop offset="3.514%" stop-color="#FE905D"/>
            <stop offset="100%" stop-color="#FE529A"/>
        </linearGradient>
        <linearGradient id="f" x1="2.366%" x2="97.467%" y1="45.974%" y2="54.101%">
            <stop offset="3.514%" stop-color="#E6EDFC"/>
            <stop offset="100%" stop-color="#C8D3FC"/>
        </linearGradient>
        <linearGradient id="g" x1="2.37%" x2="97.47%" y1="45.972%" y2="54.1%">
            <stop offset="3.514%" stop-color="#E6EDFC"/>
            <stop offset="100%" stop-color="#C8D3FC"/>
        </linearGradient>
        <linearGradient id="h" x1="2.373%" x2="97.473%" y1="45.971%" y2="54.098%">
            <stop offset="3.514%" stop-color="#E6EDFC"/>
            <stop offset="100%" stop-color="#C8D3FC"/>
        </linearGradient>
        <linearGradient id="i" x1="2.371%" x2="97.471%" y1="45.97%" y2="54.097%">
            <stop offset="3.514%" stop-color="#E6EDFC"/>
            <stop offset="100%" stop-color="#C8D3FC"/>
        </linearGradient>
        <linearGradient id="j" x1="2.368%" x2="97.468%" y1="45.969%" y2="54.096%">
            <stop offset="3.514%" stop-color="#E6EDFC"/>
            <stop offset="100%" stop-color="#C8D3FC"/>
        </linearGradient>
        <linearGradient id="k" x1="2.365%" x2="97.465%" y1="45.97%" y2="54.097%">
            <stop offset="3.514%" stop-color="#E6EDFC"/>
            <stop offset="100%" stop-color="#C8D3FC"/>
        </linearGradient>
        <linearGradient id="l" x1="2.362%" x2="97.462%" y1="45.971%" y2="54.099%">
            <stop offset="3.514%" stop-color="#E6EDFC"/>
            <stop offset="100%" stop-color="#C8D3FC"/>
        </linearGradient>
        <linearGradient id="m" x1="2.364%" x2="97.464%" y1="45.973%" y2="54.1%">
            <stop offset="3.514%" stop-color="#E6EDFC"/>
            <stop offset="100%" stop-color="#C8D3FC"/>
        </linearGradient>
        <linearGradient id="n" x1="50%" x2="50%" y1="0%" y2="99.367%">
            <stop offset="0%" stop-color="#0075FB"/>
            <stop offset="100%" stop-color="#00A0F5"/>
        </linearGradient>
        <linearGradient id="o" x1="50%" x2="50%" y1="0%" y2="99.367%">
            <stop offset="0%" stop-color="#0075FB"/>
            <stop offset="100%" stop-color="#00A0F5"/>
        </linearGradient>
        <linearGradient id="p" x1="30.55%" x2="70.713%" y1="52.711%" y2="45.41%">
            <stop offset="3.514%" stop-color="#FEA45D"/>
            <stop offset="100%" stop-color="#FE3C9A"/>
        </linearGradient>
    </defs>
    <g fill="none" fill-rule="nonzero">
        <path fill="url(#a)" d="M155.624 234.857c-8.67-13.928-78.31-37.45-36.526-83.142 41.784-45.692 78.736-71.771 151.858-54.361 73.122 17.41 74.4 80.583 70.493 110.997-3.909 30.485 97.495 63.102 89.608 132.316-7.817 69.213-54.362 107.942-162.304 106.165-107.942-1.776-212.757-22.668-193.215-80.086 19.542-57.417 72.695-40.433 81.365-59.62 10.02-22.171 25.653-29.135-1.28-72.27z" opacity=".7"/>
        <g transform="translate(0 73.904)">
            <ellipse cx="113.129" cy="251.841" fill="url(#b)" opacity=".7" rx="76.959" ry="22.171"/>
            <path fill="#FDE4DB" d="M169.907 236.42s-2.345 14.923-19.542 17.34c-17.197 2.415-19.613-8.67-19.613-8.67s32.12-8.883 39.155-8.67z"/>
            <path fill="#FDE4DB" d="M134.234 245.516s-2.7 18.05-22.384 21.034c-19.684 2.985-22.455-10.517-22.455-10.517s36.81-10.801 44.84-10.517z"/>
            <path fill="url(#c)" d="M137.93 151.36s8.243 15.278 15.065 30.485c6.892 15.207 32.403 30.912 37.804 43.205 5.4 12.294-9.806 10.802-33.896 18.192-24.09 7.39-54.007 18.69-77.599 12.791-23.592-5.898-32.901-5.4-48.606-18.192-15.704-12.79-21.105-10.8-15.704-27.5 5.4-16.7 32.901-51.093 48.108-58.98 15.207-7.818 74.828 0 74.828 0z"/>
            <path fill="url(#d)" d="M111.992 1.777s-30.556-8.599-37.378 17.48c-6.822 26.08 2.274 18.903-18.831 35.744-21.105 16.842-28.496 29.206-21.105 51.164C34.962 110.43.995 122.296.71 139.706c-.285 17.481 25.084 55.783 55.64 42.353 5.543-1.493 29.42-2.203 45.764-21.674 16.344-19.47 46.047 4.69 62.889-10.944 16.841-15.633 14.141-25.724 15.989-32.617 1.776-6.892 23.094-3.055 28.921-22.1 5.827-19.044-6.821-31.835-14.851-32.403-7.96-.569-57.418 2.131-58.555-5.33-1.137-7.461 4.975-29.561-.781-40.79C129.97 4.975 116.043-.71 111.992 1.778z"/>
            <path fill="#FDE4DB" d="M116.327 9.735c.284.569 10.446 4.761 9.593 23.095-.568 9.593-3.055 14.78-9.096 19.542-3.126 2.487-9.948.782-10.374.071-.427-.71-11.655-6.466-11.3-15.704.427-12.65 3.056-24.659 9.523-26.15 6.395-1.422 11.654-.854 11.654-.854z"/>
            <path fill="url(#e)" d="M113.2 3.482s5.543 5.045 2.843 15.35c-2.63 10.303-5.898 20.891-28.638 29.205-22.74 8.314-4.619-33.327-1.35-36.028C99.77.497 111.14 2.7 113.2 3.482z"/>
            <path fill="#FDE4DB" d="M116.753 48.322s-2.131 10.8 0 14.283c2.203 3.553-8.953 3.624-12.648 2.274-3.696-1.35-3.838-3.269-2.274-3.98 1.492-.781 2.842-10.304 4.192-12.577 1.35-2.274 10.73 0 10.73 0zM156.405 126.205s9.096-6.538 16.984 2.06c7.888 8.599-1.208 5.898-4.69 4.477-3.482-1.421-3.553-2.842-3.553-2.842s.213 6.182-6.68 4.334c-6.893-1.847-12.862-4.405-12.293-9.238.568-4.832 8.953-8.527 11.796-3.34 2.842 5.26 3.908 6.538 3.908 6.538M79.66 159.035c.781.995 12.577 11.512 11.37 14.212-1.209 2.7-9.239-4.264-9.239-4.264s5.685 7.106 2.63 9.522c-3.056 2.417-10.66 4.406-13.289-.994-2.63-5.401-6.324-14.07-3.837-15.207 2.487-1.137 12.364-3.27 12.364-3.27z"/>
        </g>
        <path fill="#FF4077" d="M31.125 25.227C29.064 16.06 34.678 5.898 43.632 2.842c9.522-3.268 20.323 2.985 23.52 12.223 3.767 10.801-3.979 21.318-10.232 29.348-7.675 9.878-15.42 19.684-23.166 29.49-.284.356-.426.853-.142 1.28 2.06 3.126 4.193 6.253 6.253 9.38.782 1.137 2.63.07 1.848-1.066-2.06-3.127-4.193-6.254-6.254-9.38-.07.426-.142.852-.142 1.279 7.746-9.807 15.492-19.613 23.166-29.49 5.685-7.249 11.867-15.563 11.796-25.227C70.21 4.69 50.667-5.97 37.52 3.695c-6.822 5.046-10.304 13.786-8.527 22.1.355 1.35 2.416.782 2.132-.568zM50.17 97.07c-1.138-1.35-3.27-1.209-4.975-.782l.497.142c-.852 1.208-1.634 2.487-2.274 3.837-.71 1.28-1.279 2.985-.426 4.122.64.924 1.99 1.137 3.056.852 1.066-.355 1.99-1.136 2.7-1.99.782-.852 1.492-1.776 1.847-2.842.427-1.208.356-2.487-.426-3.34z"/>
        <path fill="#000" d="M182.627 420.326c0 .498-.142 1.066-.355 1.35-.213.285-.356.143-.356-.355 0-.497.143-1.066.356-1.35.142-.213.355-.071.355.355zM285.595 484.352l-48.962 42.708-34.82-23.095z"/>
        <path fill="url(#f)" d="M36.383 56.28l51.093-39.083L51.022.142.072 37.876z" transform="translate(200.392 465.45)"/>
        <path fill="#A3B5EF" d="M238.197 504.818c1.563-3.908-.995-8.03-5.614-9.167-4.69-1.137-9.735 1.066-11.299 4.974-1.563 3.909.995 8.03 5.614 9.167 4.619 1.208 9.735-1.066 11.299-4.974zM229.456 485.276l29.49 14.71 2.7-2.132-29.56-14.568zM242.816 484.21l21.744 10.73 2.772-2.06-22.1-10.517zM249.211 479.307l21.034 10.66 2.772-2.062-20.68-10.303z"/>
        <path fill="#000" d="M358.077 426.793L309.116 469.5l-34.82-23.095z"/>
        <path fill="url(#g)" d="M36.383 56.28l51.093-39.083L51.022.142.072 37.876z" transform="translate(272.875 407.89)"/>
        <path fill="#A3B5EF" d="M310.68 447.259c1.562-3.909-.996-8.03-5.615-9.167-4.69-1.137-9.735 1.066-11.298 4.974-1.564 3.908.994 8.03 5.613 9.167 4.62 1.208 9.736-1.066 11.3-4.974zM301.939 427.717l29.49 14.71 2.7-2.132-29.561-14.568zM315.298 426.65l21.745 10.731 2.771-2.06-22.1-10.518zM321.694 421.748l21.034 10.659 2.771-2.061-20.679-10.304z"/>
        <g>
            <path fill="#000" d="M430.56 369.233l-48.962 42.708-34.82-23.095z"/>
            <path fill="url(#h)" d="M36.383 56.28l51.093-39.083L51.022.142.072 37.876z" transform="translate(345.357 350.331)"/>
            <path fill="#A3B5EF" d="M383.161 389.699c1.564-3.908-.994-8.03-5.613-9.167-4.69-1.137-9.736 1.066-11.3 4.974-1.562 3.909.996 8.03 5.615 9.167 4.619 1.208 9.735-1.066 11.298-4.974zM374.42 370.157l29.491 14.71 2.7-2.132-29.56-14.567zM387.78 369.091l21.745 10.73 2.771-2.06-22.1-10.517zM394.176 364.188l21.034 10.66 2.771-2.062-20.678-10.303z"/>
        </g>
        <g>
            <path fill="#000" d="M368.736 338.677l-48.961 42.708-34.82-23.095z"/>
            <path fill="url(#i)" d="M36.383 56.28l51.093-39.083L51.022.142.072 37.876z" transform="translate(283.534 319.775)"/>
            <path fill="#A3B5EF" d="M321.338 359.143c1.564-3.909-.995-8.03-5.614-9.167-4.69-1.137-9.735 1.066-11.298 4.974-1.564 3.909.995 8.03 5.614 9.167 4.619 1.208 9.735-1.066 11.298-4.974zM312.598 339.601l29.49 14.71 2.7-2.132-29.561-14.568zM325.957 338.535l21.745 10.73 2.771-2.06-22.1-10.518zM332.353 333.632l21.034 10.659 2.771-2.06-20.679-10.305z"/>
        </g>
        <g>
            <path fill="#000" d="M306.913 308.12l-48.961 42.709-34.82-23.095z"/>
            <path fill="url(#j)" d="M36.383 56.28l51.093-39.083L51.022.142.072 37.876z" transform="translate(221.71 289.219)"/>
            <path fill="#A3B5EF" d="M259.515 328.586c1.563-3.908-.995-8.03-5.614-9.166-4.69-1.137-9.735 1.066-11.298 4.974-1.564 3.908.994 8.03 5.613 9.167 4.62 1.208 9.736-1.066 11.3-4.975zM250.775 309.045l29.49 14.71 2.7-2.132-29.561-14.568zM264.134 307.979l21.745 10.73 2.771-2.06-22.1-10.518zM270.53 303.076l21.034 10.659 2.771-2.061-20.679-10.304z"/>
        </g>
        <g>
            <path fill="#000" d="M240.115 364.97l-48.96 42.707-34.82-23.094z"/>
            <path fill="url(#k)" d="M36.383 56.28l51.093-39.083L51.022.142.072 37.876z" transform="translate(154.913 346.068)"/>
            <path fill="#A3B5EF" d="M192.718 385.435c1.563-3.908-.995-8.03-5.614-9.167-4.69-1.136-9.736 1.066-11.299 4.975-1.563 3.908.995 8.03 5.614 9.167 4.619 1.208 9.735-1.066 11.299-4.975zM183.977 365.894l29.49 14.71 2.7-2.133-29.56-14.567zM197.337 364.828l21.744 10.73 2.772-2.06-22.1-10.518zM203.732 359.924l21.034 10.66 2.772-2.061-20.68-10.304z"/>
        </g>
        <g>
            <path fill="#000" d="M173.318 421.819l-48.961 42.707-34.82-23.094z"/>
            <path fill="url(#l)" d="M36.383 56.28l51.093-39.083L51.022.142.072 37.876z" transform="translate(88.116 402.916)"/>
            <path fill="#A3B5EF" d="M125.92 442.284c1.564-3.908-.995-8.03-5.614-9.167-4.69-1.137-9.735 1.066-11.298 4.975-1.564 3.908.995 8.03 5.614 9.167 4.619 1.208 9.735-1.066 11.298-4.975zM117.18 422.742l29.49 14.71 2.7-2.132-29.561-14.567zM130.54 421.677l21.744 10.73 2.771-2.061-22.1-10.517zM136.935 416.773l21.034 10.66 2.771-2.061-20.679-10.304z"/>
        </g>
        <g>
            <path fill="#000" d="M228.035 457.35l-48.961 42.707-34.82-23.095z"/>
            <path fill="url(#m)" d="M36.383 56.28l51.093-39.083L51.022.142.072 37.876z" transform="translate(142.833 438.447)"/>
            <path fill="#A3B5EF" d="M180.637 477.815c1.564-3.909-.995-8.03-5.614-9.167-4.69-1.137-9.735 1.066-11.298 4.974-1.564 3.909.995 8.03 5.614 9.167 4.619 1.208 9.735-1.066 11.298-4.974zM171.897 458.273l29.49 14.71 2.7-2.132-29.561-14.568zM185.256 457.207l21.745 10.73 2.771-2.06-22.1-10.518zM191.652 452.304l21.034 10.659 2.771-2.06-20.679-10.305z"/>
        </g>
        <path fill="url(#n)" d="M250.348 409.454l-16.344-47.682 13.004 5.472z"/>
        <path fill="url(#o)" d="M262.215 414.144l37.165-34.038-13.999-1.421z"/>
        <g fill="url(#p)" opacity=".6" transform="translate(353.174 90.958)">
            <path d="M5.685 11.867c12.08 9.878 19.684 25.014 20.537 40.576.994 18.76-7.107 38.515.07 55.854 6.751 16.344 27.714 25.085 44.058 18.405 10.873-4.406 19.258-15.634 18.263-27.359-.924-11.085-9.238-19.826-15.846-28.708-9.096-12.294-15.492-26.577-18.903-41.5-1.35-5.756-2.274-11.867-5.614-16.77C41.144 1.848 26.435.568 13.715.285 9.593.212 4.975.284 2.06 3.268-.853 6.253.78 12.79 4.832 12.294"/>
        </g>
    </g>
</svg>
