<svg xmlns="http://www.w3.org/2000/svg" width="216" height="64" viewBox="0 0 216 64">
    <g fill="none" fill-rule="evenodd">
        <path fill="#000" d="M6.507.723h202.02a5.784 5.784 0 0 1 5.785 5.784v50.614a5.784 5.784 0 0 1-5.784 5.784H6.508a5.784 5.784 0 0 1-5.785-5.784V6.507A5.784 5.784 0 0 1 6.507.723"/>
        <path fill="#A6A6A6" d="M6.507 1.446a5.067 5.067 0 0 0-5.06 5.061v50.614c0 2.79 2.27 5.061 5.06 5.061h202.02c2.791 0 5.062-2.27 5.062-5.061V6.507c0-2.79-2.27-5.06-5.061-5.06H6.508zm202.02 62.182H6.508A6.515 6.515 0 0 1 0 57.121V6.507A6.515 6.515 0 0 1 6.507 0h202.02a6.515 6.515 0 0 1 6.508 6.507v50.614a6.515 6.515 0 0 1-6.507 6.507z"/>
        <path fill="#8F8F8F" d="M6.146.723A5.429 5.429 0 0 0 .723 6.146v51.336a5.429 5.429 0 0 0 5.423 5.423h202.743a5.429 5.429 0 0 0 5.423-5.423V6.146a5.429 5.429 0 0 0-5.423-5.423H6.146zm202.743 62.905H6.146A6.153 6.153 0 0 1 0 57.482V6.146A6.153 6.153 0 0 1 6.146 0h202.743a6.153 6.153 0 0 1 6.146 6.146v51.336a6.153 6.153 0 0 1-6.146 6.146z"/>
        <path fill="#FFF" d="M189.776 44.085c-.593 1.26-1.913 1.957-3.84 1.957-2.55 0-4.197-1.794-4.3-4.626v-.178h11.402v-1.112c0-5.071-2.713-8.141-7.206-8.141-4.553 0-7.444 3.277-7.444 8.437 0 5.16 2.832 8.334 7.459 8.334 3.692 0 6.272-1.78 6.998-4.671h-3.069zm-3.96-9.386c2.359 0 3.9 1.646 3.975 4.181h-8.156c.178-2.52 1.824-4.181 4.182-4.181zM169.58 48.444h3.188V38.91c0-2.269 1.706-3.796 4.108-3.796.534 0 1.512.104 1.764.193v-3.144c-.34-.089-.949-.133-1.408-.133-2.106 0-3.885 1.156-4.345 2.743h-.237v-2.477h-3.07v16.148zm-9.06.312c4.715 0 7.606-3.159 7.606-8.393 0-5.205-2.906-8.378-7.607-8.378-4.715 0-7.621 3.173-7.621 8.378 0 5.234 2.891 8.393 7.621 8.393zm0-2.832c-2.774 0-4.33-2.032-4.33-5.561 0-3.5 1.556-5.546 4.33-5.546 2.757 0 4.329 2.046 4.329 5.546 0 3.514-1.572 5.56-4.33 5.56zm-14.711-17.542v3.989h-2.654v2.684h2.654v9.119c0 3.114 1.408 4.36 4.952 4.36.623 0 1.202-.075 1.706-.164v-2.654c-.445.044-.697.074-1.187.074-1.586 0-2.283-.741-2.283-2.432v-8.303h3.618V32.37h-3.618v-3.99h-3.188zM126.649 42.69c.237 3.826 3.425 6.272 8.17 6.272 5.071 0 8.245-2.565 8.245-6.658 0-3.217-1.81-4.997-6.198-6.02l-2.358-.578c-2.788-.652-3.915-1.527-3.915-3.055 0-1.927 1.75-3.188 4.375-3.188 2.49 0 4.21 1.231 4.522 3.203h3.233c-.193-3.603-3.366-6.139-7.71-6.139-4.672 0-7.786 2.536-7.786 6.347 0 3.143 1.765 5.012 5.635 5.916l2.758.667c2.832.668 4.078 1.646 4.078 3.277 0 1.899-1.958 3.278-4.627 3.278-2.861 0-4.848-1.29-5.13-3.322h-3.292zm-14.356 3.158c-2.669 0-4.344-2.105-4.344-5.471 0-3.381 1.675-5.487 4.36-5.487 2.698 0 4.314 2.062 4.314 5.472 0 3.425-1.616 5.486-4.33 5.486zm.905-13.82c-2.195 0-4.093 1.098-5.071 2.936h-.238v-2.669h-3.069V53.68h3.188v-7.681h.252c.845 1.705 2.67 2.713 4.968 2.713 4.077 0 6.672-3.218 6.672-8.348 0-5.13-2.595-8.333-6.702-8.333zM95.759 45.85c-2.669 0-4.345-2.105-4.345-5.471 0-3.381 1.676-5.487 4.36-5.487 2.699 0 4.315 2.062 4.315 5.472 0 3.425-1.616 5.486-4.33 5.486zm.905-13.82c-2.195 0-4.093 1.098-5.072 2.936h-.237v-2.669h-3.07V53.68h3.189v-7.681h.252c.845 1.705 2.669 2.713 4.967 2.713 4.078 0 6.673-3.218 6.673-8.348 0-5.13-2.595-8.333-6.702-8.333zm-19.04-1.097h.251l3.1 9.045h-6.466l3.114-9.045zm6.153 17.512h3.53L79.58 27.047h-3.574l-7.725 21.397h3.41l1.972-5.679h8.156l1.957 5.68zM190.303 18.459c-.283.6-.911.932-1.829.932-1.215 0-1.998-.855-2.048-2.203v-.085h5.43v-.53c0-2.414-1.292-3.876-3.431-3.876-2.168 0-3.545 1.56-3.545 4.018 0 2.457 1.349 3.968 3.552 3.968 1.758 0 2.986-.848 3.332-2.224h-1.461zm-1.886-4.47c1.123 0 1.858.784 1.893 1.991h-3.884c.085-1.2.869-1.99 1.991-1.99zm-12.421 6.546h1.518v-4.491c0-1.165.77-1.95 2.012-1.95 1.144 0 1.716.622 1.716 1.85v4.59h1.518v-4.963c0-1.83-.988-2.867-2.718-2.867-1.158 0-2.048.515-2.422 1.377h-.12V9.844h-1.504v10.69zm-5.403-9.554v1.9h-1.264v1.278h1.264V18.5c0 1.483.67 2.076 2.358 2.076.297 0 .572-.035.812-.078v-1.264c-.212.022-.332.036-.565.036-.755 0-1.087-.353-1.087-1.158v-3.954h1.723V12.88h-1.723v-1.899h-1.518zm-14.034 9.554h1.519v-4.498c0-1.2.748-1.95 1.97-1.95 1.13 0 1.68.615 1.68 1.85v4.598h1.518v-4.978c0-1.83-.967-2.86-2.683-2.86-1.158 0-2.055.515-2.429 1.37h-.113v-1.222h-1.462v7.69zm-5.805.148c2.245 0 3.622-1.504 3.622-3.997 0-2.478-1.384-3.99-3.622-3.99-2.246 0-3.63 1.512-3.63 3.99 0 2.493 1.378 3.997 3.63 3.997zm0-1.349c-1.32 0-2.062-.967-2.062-2.648 0-1.666.742-2.64 2.062-2.64 1.313 0 2.062.974 2.062 2.64 0 1.674-.749 2.648-2.062 2.648zm-13.758-5.253c1.271 0 2.07 1.01 2.07 2.612 0 1.61-.792 2.606-2.07 2.606-1.285 0-2.055-.982-2.055-2.613 0-1.617.777-2.605 2.055-2.605zm-.43 6.58c1.059 0 1.955-.5 2.414-1.34h.12v1.214h1.455V9.845h-1.518v4.222h-.113c-.417-.848-1.306-1.349-2.359-1.349-1.941 0-3.191 1.54-3.191 3.968 0 2.436 1.236 3.976 3.191 3.976zm-9.224 0c1.01 0 1.85-.437 2.31-1.207h.12v1.08h1.46v-5.253c0-1.624-1.086-2.584-3.014-2.584-1.744 0-2.987.847-3.142 2.168h1.469c.169-.544.755-.855 1.602-.855 1.038 0 1.575.46 1.575 1.271v.664l-2.083.12c-1.829.113-2.86.91-2.86 2.295 0 1.405 1.08 2.302 2.563 2.302zm.389-1.277c-.826 0-1.427-.403-1.427-1.095 0-.678.48-1.038 1.54-1.108l1.878-.12v.642c0 .953-.847 1.68-1.991 1.68zm-8.32 1.299c2.246 0 3.623-1.504 3.623-3.997 0-2.478-1.384-3.99-3.623-3.99-2.245 0-3.629 1.512-3.629 3.99 0 2.493 1.377 3.997 3.63 3.997zm0-1.349c-1.32 0-2.061-.967-2.061-2.648 0-1.666.741-2.64 2.061-2.64 1.314 0 2.062.974 2.062 2.64 0 1.674-.748 2.648-2.062 2.648zm-7.4 1.2h1.517V9.845h-1.518v10.69zm-9.252 0h1.518v-4.497c0-1.2.748-1.95 1.97-1.95 1.13 0 1.68.615 1.68 1.85v4.598h1.518v-4.978c0-1.83-.967-2.86-2.683-2.86-1.158 0-2.054.515-2.429 1.37h-.113v-1.222h-1.461v7.69zm-1.93-7.689h-1.518l-1.37 5.868h-.12l-1.581-5.868h-1.455l-1.581 5.868h-.113l-1.377-5.868h-1.54l2.119 7.69h1.56l1.582-5.663h.12l1.589 5.663h1.574l2.112-7.69zm-15.521 7.838c2.245 0 3.622-1.504 3.622-3.997 0-2.478-1.384-3.99-3.622-3.99-2.245 0-3.63 1.512-3.63 3.99 0 2.493 1.378 3.997 3.63 3.997zm0-1.349c-1.32 0-2.062-.967-2.062-2.648 0-1.666.742-2.64 2.062-2.64 1.313 0 2.062.974 2.062 2.64 0 1.674-.749 2.648-2.062 2.648zm-12.457-7.548h1.92c2.112 0 3.362 1.342 3.362 3.644 0 2.337-1.229 3.664-3.361 3.664H72.85v-7.308zm-1.582-1.44v10.189h3.68c3.035 0 4.794-1.872 4.794-5.127 0-3.205-1.773-5.063-4.795-5.063H71.27zM49.94 32.039c-.047-5.172 4.235-7.688 4.43-7.805-2.424-3.536-6.183-4.019-7.503-4.057-3.157-.332-6.219 1.889-7.827 1.889-1.64 0-4.116-1.857-6.784-1.803-3.435.053-6.647 2.042-8.41 5.13-3.635 6.294-.923 15.546 2.56 20.634 1.743 2.494 3.78 5.275 6.445 5.177 2.608-.106 3.582-1.662 6.729-1.662 3.118 0 4.032 1.662 6.75 1.598 2.8-.042 4.561-2.502 6.243-5.018 2.014-2.853 2.823-5.67 2.855-5.814-.064-.02-5.434-2.07-5.488-8.269M44.805 16.83c1.402-1.755 2.362-4.14 2.095-6.562-2.03.09-4.568 1.404-6.03 3.12-1.294 1.51-2.45 3.989-2.15 6.319 2.28.17 4.621-1.151 6.085-2.878"/>
    </g>
</svg>
