<svg xmlns="http://www.w3.org/2000/svg" width="23" height="22" viewBox="0 0 23 22">
    <path fill="#686868" fill-rule="evenodd" d="M11.199 0C5.015 0 0 5.014 0 11.2c0 4.947 3.209 9.145 7.66 10.626.56.102.764-.243.764-.54 0-.266-.01-.97-.015-1.905-3.115.677-3.772-1.501-3.772-1.501-.51-1.294-1.244-1.638-1.244-1.638-1.017-.695.077-.681.077-.681 1.124.08 1.715 1.154 1.715 1.154 1 1.711 2.62 1.217 3.26.931.101-.724.39-1.218.71-1.497-2.486-.283-5.1-1.244-5.1-5.535 0-1.223.436-2.222 1.152-3.005-.115-.284-.5-1.422.11-2.964 0 0 .94-.301 3.08 1.148a10.727 10.727 0 0 1 2.803-.378c.95.005 1.91.129 2.804.378 2.138-1.45 3.076-1.148 3.076-1.148.611 1.542.227 2.68.112 2.964.717.783 1.151 1.782 1.151 3.005 0 4.302-2.618 5.249-5.113 5.526.402.346.76 1.029.76 2.074 0 1.497-.014 2.705-.014 3.072 0 .3.202.648.77.539C19.192 20.34 22.4 16.145 22.4 11.2c0-6.186-5.015-11.2-11.2-11.2"/>
</svg>
