<svg xmlns="http://www.w3.org/2000/svg" width="63" height="14" viewBox="0 0 63 14">
    <path fill="#5A5E69" fill-rule="evenodd" d="M20.373 3.157a1.578 1.578 0 1 1 0-3.157 1.578 1.578 0 0 1 0 3.157zM47.526 0v2.57H40.97v2.882h5.803v2.57H40.97v2.92h21.446v2.57H38.307V0h9.22zm-19.26 10.971c1.383 0 2.479-.355 3.287-1.065.808-.71 1.212-1.731 1.212-3.065 0-1.077-.224-1.934-.67-2.57-.448-.637-.968-1.077-1.562-1.322-.593-.245-1.154-.367-1.68-.367h-2.167v8.39h1.58zM24.102 0h4.04c1.727 0 3.147.333 4.261 1 1.114.668 1.925 1.53 2.434 2.589a7.769 7.769 0 0 1 .762 3.405c0 1.298-.306 2.442-.919 3.433a6.168 6.168 0 0 1-2.47 2.286c-1.034.532-2.17.799-3.406.799h-4.702V0zM18.77 8.795v4.717h-2.663V9.308L11.129 0h3.287l3.104 6.242 1.249 2.553zM2.663 6.645h1.891c.723 0 1.25-.21 1.58-.633.33-.422.496-.878.496-1.367 0-.49-.141-.958-.423-1.405-.281-.447-.826-.67-1.634-.67h-1.91v4.076zm4.628 6.867L4.444 9.216H2.663v4.296H0V0h4.095c1.678 0 2.978.407 3.903 1.22.924.815 1.386 1.925 1.386 3.333 0 .832-.174 1.612-.523 2.34A3.884 3.884 0 0 1 7.254 8.61l3.14 4.902H7.291z"/>
</svg>
