<svg xmlns="http://www.w3.org/2000/svg" width="22" height="22" viewBox="0 0 22 22">
    <path fill="#686868" fill-rule="evenodd" d="M0 0h22v22H0V0zm5.25 7.358v6.532a.752.752 0 0 1-.2.648l-1.553 1.884v.248H7.9v-.248l-1.553-1.884a.78.78 0 0 1-.214-.648V8.24l3.864 8.43h.449l3.318-8.43v6.72c0 .179 0 .213-.117.33l-1.194 1.16v.247h5.796v-.248l-1.152-1.131a.345.345 0 0 1-.131-.331V6.675a.345.345 0 0 1 .131-.331l1.18-1.132v-.248h-4.085l-2.912 7.264L7.97 4.964H3.684v.248l1.38 1.663a.572.572 0 0 1 .186.483z"/>
</svg>
