<svg xmlns="http://www.w3.org/2000/svg" width="190" height="41" viewBox="0 0 190 41">
    <path fill="#000" fill-rule="evenodd" d="M61.733 9.565a4.783 4.783 0 1 1 0-9.565 4.783 4.783 0 0 1 0 9.565zM144.009 0v7.788h-19.866v8.733h17.585v7.788h-17.585v8.845h64.983v7.787h-73.051V0h27.934zM85.647 33.244c4.192 0 7.512-1.076 9.96-3.227 2.449-2.15 3.673-5.247 3.673-9.29 0-3.263-.677-5.859-2.031-7.787s-2.93-3.263-4.73-4.005c-1.8-.742-3.497-1.113-5.092-1.113h-6.566v25.422h4.786zM73.036 0h12.242c5.23 0 9.534 1.01 12.91 3.032 3.376 2.02 5.834 4.635 7.373 7.843 1.54 3.208 2.31 6.647 2.31 10.319 0 3.93-.928 7.398-2.783 10.402-1.855 3.004-4.35 5.312-7.484 6.925-3.135 1.614-6.576 2.42-10.323 2.42H73.036V0zM56.87 26.65V40.94h-8.068V28.203L33.722 0h9.96l9.404 18.913 3.784 7.736zM8.07 20.136H13.8c2.19 0 3.784-.64 4.786-1.92 1.002-1.279 1.502-2.66 1.502-4.143 0-1.484-.426-2.902-1.28-4.256-.853-1.354-2.504-2.03-4.952-2.03H8.069v12.349zM22.09 40.94l-8.625-13.017H8.07v13.017h-8.07V0h12.41c5.083 0 9.024 1.233 11.825 3.7 2.8 2.465 4.201 5.83 4.201 10.095 0 2.522-.528 4.886-1.586 7.093-1.057 2.206-2.68 3.94-4.869 5.2l9.516 14.853H22.09z"/>
</svg>
