<svg xmlns="http://www.w3.org/2000/svg" width="103" height="15" viewBox="0 0 103 15">
    <path fill="#5A5E69" fill-rule="evenodd" d="M4.121 1.836V12.88h4.834V8.32h1.826v6.396H0V12.88h1.895V1.836H0V0h6.016v1.836H4.12zm16.816 6.24v4.844h1.72v1.797H19.16v-1.26c-.976.957-2.064 1.436-3.262 1.436-.631 0-1.209-.147-1.733-.44a3.501 3.501 0 0 1-1.26-1.177 2.964 2.964 0 0 1-.473-1.635c0-.645.174-1.22.522-1.724a3.411 3.411 0 0 1 1.411-1.167 4.23 4.23 0 0 1 1.787-.41c1.003 0 1.937.293 2.803.879V8.115c0-.8-.17-1.373-.508-1.719-.338-.345-.895-.517-1.67-.517-.547 0-1.004.1-1.372.298-.368.198-.672.5-.913.903l-1.933-.478c.436-.814 1.025-1.421 1.767-1.822.742-.4 1.625-.6 2.647-.6 1.373 0 2.378.312 3.012.937.635.625.953 1.612.953 2.96zm-4.765 5.264c.99 0 1.917-.414 2.783-1.24v-1.202c-.879-.683-1.758-1.025-2.637-1.025-.533 0-.994.168-1.381.503a1.602 1.602 0 0 0-.582 1.265c0 .488.17.893.508 1.215.339.323.775.484 1.309.484zm12.226-.205c.905 0 1.885-.44 2.94-1.319V6.26H29.52V4.453h3.838v8.467h1.758v1.797h-3.78v-1.182c-1.184.905-2.31 1.358-3.378 1.358-.964 0-1.675-.287-2.134-.86-.459-.573-.688-1.523-.688-2.851V6.26H23.7V4.453h3.457v7.149c0 .527.096.914.288 1.162.192.247.51.37.952.37zm17.696-5.322v5.107h1.718v1.797h-3.74V7.939c0-.644-.093-1.106-.278-1.386-.186-.28-.49-.42-.913-.42-.899 0-1.908.443-3.027 1.328v5.459h1.767v1.797h-5.566V12.92h1.806V6.26h-1.806V4.453h3.799v1.24c1.256-.918 2.438-1.377 3.544-1.377.918 0 1.597.284 2.037.85.439.566.659 1.449.659 2.646zm10.781-2.618v-.742h1.797V8.34h-1.797c-.078-.749-.378-1.32-.898-1.714a2.913 2.913 0 0 0-1.807-.59c-.586 0-1.112.155-1.577.468a3.095 3.095 0 0 0-1.08 1.27 4.017 4.017 0 0 0-.38 1.747c0 1.075.286 1.952.86 2.632.572.68 1.327 1.02 2.265 1.02 1.452 0 2.477-.673 3.076-2.02l1.68.8c-.944 2.044-2.559 3.067-4.844 3.067-1.022 0-1.93-.241-2.725-.723a4.893 4.893 0 0 1-1.84-1.983c-.433-.84-.65-1.77-.65-2.793 0-1.002.22-1.914.66-2.734a4.856 4.856 0 0 1 1.81-1.919c.769-.459 1.625-.688 2.57-.688 1.119 0 2.08.338 2.88 1.015zM67.09 4.18c1.907 0 2.861 1.032 2.861 3.095v5.645h1.738v1.797h-3.76V7.998c0-.736-.105-1.253-.317-1.553-.211-.3-.538-.449-.981-.449-.749 0-1.722.44-2.92 1.318v5.606h1.777v1.797h-5.634V12.92h1.835V1.777h-1.835V0h3.857v5.654c1.21-.983 2.337-1.474 3.379-1.474zm16.562 5.918H75.05c.124.983.504 1.76 1.142 2.329.638.57 1.42.854 2.344.854.677 0 1.305-.14 1.885-.42.58-.28 1.064-.71 1.455-1.289l1.777.801a5.412 5.412 0 0 1-2.202 1.978 6.632 6.632 0 0 1-2.964.669c-1.106 0-2.09-.232-2.949-.694a5.013 5.013 0 0 1-2.007-1.933c-.478-.827-.718-1.758-.718-2.793 0-1.029.237-1.957.709-2.784a5.086 5.086 0 0 1 1.938-1.938 5.405 5.405 0 0 1 2.715-.698c1.08 0 2.023.239 2.827.717.804.479 1.437 1.163 1.9 2.051.462.889.712 1.939.751 3.15zm-5.44-4.239c-.76 0-1.428.256-2.001.767s-.94 1.186-1.104 2.026h6.426c-.189-.84-.589-1.515-1.201-2.026a3.21 3.21 0 0 0-2.12-.767zm10.704 4.737v2.324h2.236v1.797h-6.298V12.92h2.06V6.26h-2.06V4.453h3.662v2.324c.41-.918.92-1.557 1.528-1.919.609-.36 1.48-.542 2.612-.542h.46v2.041h-.44c-1.094 0-1.908.144-2.442.43a2.1 2.1 0 0 0-1.06 1.299c-.172.58-.258 1.416-.258 2.51zm11.543-5.703v-.44h1.758v3.408h-1.758v-.625c-.586-.84-1.387-1.26-2.402-1.26-.534 0-.97.118-1.309.352-.338.235-.508.537-.508.908 0 .332.129.593.386.782.257.188.835.354 1.733.498l1.358.263c2.025.371 3.037 1.364 3.037 2.979 0 .944-.366 1.702-1.099 2.275-.732.573-1.704.86-2.915.86-.482 0-.955-.07-1.42-.21a4.368 4.368 0 0 1-1.168-.523v.557h-1.797V11.2h1.797v.352c.098.495.373.892.826 1.191.452.3.978.45 1.577.45.657 0 1.175-.116 1.552-.347.378-.231.567-.575.567-1.03 0-.333-.15-.582-.45-.748-.299-.166-.901-.337-1.806-.512l-1.045-.225c-1.035-.208-1.794-.566-2.275-1.074-.482-.508-.723-1.156-.723-1.944 0-.638.177-1.183.532-1.635a3.288 3.288 0 0 1 1.363-1.02 4.448 4.448 0 0 1 1.709-.343c.983 0 1.81.192 2.48.577z"/>
</svg>
