<svg xmlns="http://www.w3.org/2000/svg" width="603" height="487" viewBox="0 0 603 487">
    <defs>
        <linearGradient id="a" x1="43.433%" x2="68.395%" y1="82.905%" y2="10.32%">
            <stop offset="0%" stop-color="#FF3C75"/>
            <stop offset="100%" stop-color="#FF8474"/>
        </linearGradient>
        <linearGradient id="b" x1="87.645%" x2="35.088%" y1="95.201%" y2="25.121%">
            <stop offset="3.514%" stop-color="#F3F545"/>
            <stop offset="100%" stop-color="#F5A21E"/>
        </linearGradient>
        <linearGradient id="c" x1="30.479%" x2="55.377%" y1="94.309%" y2="-24.116%">
            <stop offset="0%" stop-color="#FF3C75"/>
            <stop offset="100%" stop-color="#FF8474"/>
        </linearGradient>
        <linearGradient id="d" x1="83.093%" x2="41.194%" y1="8.298%" y2="103.067%">
            <stop offset="0%" stop-color="#FF3C75"/>
            <stop offset="100%" stop-color="#FF8474"/>
        </linearGradient>
        <linearGradient id="e" x1=".061%" x2="100.061%" y1="49.95%" y2="49.95%">
            <stop offset="0%" stop-color="#FF3C75"/>
            <stop offset="100%" stop-color="#FF8474"/>
        </linearGradient>
    </defs>
    <g fill="none" fill-rule="evenodd">
        <path fill="#FF3C75" d="M547.1 454.9c-.2 15.2-94.9 29.4-211.4 31.7-116.5 2.3-210.8-8.3-210.5-23.5.2-15.2 94.9-29.4 211.4-31.7 116.5-2.3 210.7 8.3 210.5 23.5z" opacity=".3"/>
        <g fill="#E1E1E1" opacity=".4">
            <g transform="translate(13 77)">
                <circle cx="7.5" cy="7.4" r="7.1"/>
                <circle cx="32.1" cy="7.4" r="7.1"/>
                <circle cx="56.8" cy="7.4" r="7.1"/>
                <circle cx="7.5" cy="32.6" r="7.1"/>
                <circle cx="32.1" cy="32.6" r="7.1"/>
                <circle cx="56.8" cy="32.6" r="7.1"/>
                <circle cx="7.5" cy="57.9" r="7.1"/>
                <circle cx="32.1" cy="57.9" r="7.1"/>
                <circle cx="56.8" cy="57.9" r="7.1"/>
            </g>
            <g transform="translate(89 77)">
                <circle cx="7.5" cy="7.4" r="7.1"/>
                <circle cx="7.5" cy="32.6" r="7.1"/>
                <circle cx="7.5" cy="57.9" r="7.1"/>
            </g>
            <g transform="translate(12 152)">
                <circle cx="8" cy="7.1" r="7.1"/>
                <circle cx="32.6" cy="7.1" r="7.1"/>
                <circle cx="57.3" cy="7.1" r="7.1"/>
                <circle cx="8" cy="32.3" r="7.1"/>
                <circle cx="32.6" cy="32.3" r="7.1"/>
                <circle cx="57.3" cy="32.3" r="7.1"/>
                <circle cx="8" cy="57.5" r="7.1"/>
                <circle cx="32.6" cy="57.5" r="7.1"/>
                <circle cx="57.3" cy="57.5" r="7.1"/>
            </g>
            <g transform="translate(88 152)">
                <circle cx="8" cy="7.1" r="7.1"/>
                <circle cx="8" cy="32.3" r="7.1"/>
                <circle cx="8" cy="57.5" r="7.1"/>
            </g>
        </g>
        <g fill="#E1E1E1" opacity=".4">
            <g transform="translate(112 25)">
                <circle cx="7.7" cy="7.7" r="7.1"/>
                <circle cx="32.3" cy="7.7" r="7.1"/>
                <circle cx="57" cy="7.7" r="7.1"/>
                <circle cx="7.7" cy="33" r="7.1"/>
                <circle cx="32.3" cy="33" r="7.1"/>
                <circle cx="57" cy="33" r="7.1"/>
                <circle cx="7.7" cy="58.2" r="7.1"/>
                <circle cx="32.3" cy="58.2" r="7.1"/>
                <circle cx="57" cy="58.2" r="7.1"/>
            </g>
            <g transform="translate(188 25)">
                <circle cx="7.7" cy="7.7" r="7.1"/>
                <circle cx="32.3" cy="7.7" r="7.1"/>
                <circle cx="57" cy="7.7" r="7.1"/>
                <circle cx="7.7" cy="33" r="7.1"/>
                <circle cx="32.3" cy="33" r="7.1"/>
                <circle cx="57" cy="33" r="7.1"/>
                <circle cx="7.7" cy="58.2" r="7.1"/>
                <circle cx="32.3" cy="58.2" r="7.1"/>
                <circle cx="57" cy="58.2" r="7.1"/>
            </g>
            <g transform="translate(112 100)">
                <circle cx="7.2" cy="7.4" r="7.1"/>
                <circle cx="31.8" cy="7.4" r="7.1"/>
                <circle cx="56.5" cy="7.4" r="7.1"/>
                <circle cx="7.2" cy="32.6" r="7.1"/>
                <circle cx="31.8" cy="32.6" r="7.1"/>
                <circle cx="56.5" cy="32.6" r="7.1"/>
                <circle cx="7.2" cy="57.9" r="7.1"/>
                <circle cx="31.8" cy="57.9" r="7.1"/>
                <circle cx="56.5" cy="57.9" r="7.1"/>
            </g>
            <g transform="translate(188 100)">
                <circle cx="7.2" cy="7.4" r="7.1"/>
                <circle cx="31.8" cy="7.4" r="7.1"/>
                <circle cx="56.5" cy="7.4" r="7.1"/>
                <circle cx="7.2" cy="32.6" r="7.1"/>
                <circle cx="31.8" cy="32.6" r="7.1"/>
                <circle cx="56.5" cy="32.6" r="7.1"/>
                <circle cx="7.2" cy="57.9" r="7.1"/>
                <circle cx="31.8" cy="57.9" r="7.1"/>
                <circle cx="56.5" cy="57.9" r="7.1"/>
            </g>
        </g>
        <path fill="url(#a)" d="M175.8 74.5s-67.6 36-78.2 67.7c-10.6 31.7-45.1 58-63.6 66.7-18.6 8.7-44.9 26.9-29.1 64.2 15.8 37.3 83.4 30.7 88.7 57.2 5.3 26.5-72.9 40-63.6 75.7 9.3 35.7 55.7 67.3 88.8 42.8 33.1-24.5 68-5.4 103.6 5 35.6 10.4 157.5 6.6 156.2-75.7-1.3-82.3-50.5-80-41.8-105 8.7-25 41.8-45 36.5-94-5.3-49-59.6-52.7-82.2-55.5-22.6-2.8-42.3-66.4-115.3-49.1z"/>
        <path fill="#33323D" d="M434.2 114.8l1.3 2.7c1.1 2.2-.3 4.9-2.8 5.2l-104 12.9c-1.4.2-2.8-.5-3.5-1.7l-1.6-2.6c-1.4-2.3 0-5.2 2.6-5.5l104.3-12.9c1.5-.3 3 .5 3.7 1.9z"/>
        <path fill="#33323D" d="M385.6 126.9l63 248.3-12.5 1.6-62.7-253.1z"/>
        <path fill="#33323D" d="M485.2 403.2c2.4 19.4-10.2 37-28.3 39.2-18 2.2-34.5-11.7-37-31.1-1.4-11 2.1-21.3 8.6-28.7 5-5.7 11.8-9.6 19.6-10.6 1.1-.1 2.2-.2 3.2-.2 6.6-.1 12.8 1.9 18.1 5.5.7.5 1.4 1 2.1 1.6 7.3 5.6 12.4 14.2 13.7 24.3z"/>
        <path fill="#FFF" stroke="#33323D" d="M465.7 405.6c1 7.8-4.1 14.8-11.3 15.7-7.2.9-13.9-4.7-14.8-12.5-.5-4.4.8-8.6 3.4-11.5 2-2.3 4.7-3.8 7.9-4.2.4-.1.9-.1 1.3-.1 2.6 0 5.2.8 7.3 2.2.3.2.6.4.8.6 2.8 2.3 4.9 5.8 5.4 9.8z"/>
        <path fill="#33323D" d="M201.6 420.9c1.7 13.7-7.2 26.1-20 27.7-12.7 1.6-24.4-8.3-26.1-22-1-7.8 1.5-15.1 6.1-20.3 3.5-4 8.3-6.8 13.9-7.5.8-.1 1.5-.2 2.3-.2 4.6-.1 9.1 1.3 12.8 3.9.5.3 1 .7 1.5 1.1 5 4.1 8.6 10.2 9.5 17.3z"/>
        <path fill="#FFF" stroke="#33323D" d="M185.6 422.9c.5 4.2-2.2 7.9-6.1 8.4-3.9.5-7.4-2.5-7.9-6.7-.3-2.4.4-4.6 1.8-6.1 1.1-1.2 2.5-2.1 4.2-2.3.2 0 .5 0 .7-.1 1.4 0 2.8.4 3.9 1.2.2.1.3.2.5.3 1.5 1.3 2.6 3.2 2.9 5.3z"/>
        <path fill="#33323D" d="M369.5 381.8L210 390l-21.4 8.5 171.9-5.1z"/>
        <path fill="#504F61" d="M187.5 411.4c.5-7.6 2-13 2-13l171.1-5 9-11.6 38.1-38.5 12.2-23.6 13.9-1.7 5.8 21.3-14 1.7-35.7 38.2s2 32.3-44 34.5c-46 2.2-112.4-9.5-134.6-1.8-22.2 7.7-24.3 7-23.8-.5z"/>
        <path fill="#504F61" d="M210 390s-1.3-.5-3.5-1.2c-8.1-2.7-28.8-8.3-43.8-2.6L152.2 401l9.3 5.5 26.1 9.3 1.8-17.3"/>
        <path fill="#FFE500" d="M413.5 330.8c-2-2.2-11.8-13.5-8.6-18.8 3.7-6.2 28.9-74.1 10.3-89.8-20-16.9-60.8-86-62.6-89l2.6-1.5c.4.7 42.3 71.6 61.9 88.2 21.3 18-7.1 89.4-9.6 93.6-1.5 2.5 4 10.6 8.2 15.3l-2.2 2z"/>
        <g>
            <path fill="url(#b)" d="M67.3 31.1s-3.8-6.8 0-12.9C71.1 12.2 76 4.9 89 1.3c13.1-3.6 26 .4 33.2 11.7 7.3 11.3 28.6 47.6 44.8 68.8 22 28.9 25.1 94.6 23.3 106.3-1.5 9.4-12.3 17.1-24.8 17.1s-27.2-3.1-31.2-1.1 2.6-62.8 2.6-62.8L93.5 48.2 67.3 31.1z" transform="translate(163)"/>
            <path fill="#6A6B9C" d="M256.1 158.2s-56.5 88.3-44.9 125c11.5 36.6 71.7 78.7 71.7 78.7l8.4-3.3s-8.4-18.8-18.6-36.1c-12.1-20.6-29.7-45-28.9-50.5 1.6-10.1 36.6-52.1 37.9-64.6 1.2-12.5-23.6-41.3-23.6-41.3l-2-7.9z"/>
            <path fill="#8180C4" d="M273.7 124.3s-29.4 39.3-25.1 85.1c4.6 47.8 39.1 139.1 52.9 177.6 13.8 38.5 7.1 48.2 10.6 53.8 3.5 5.6 18.1 2.3 19.6.8 1.5-1.5-17.8-156.7-17.8-156.7l-12.8-150.4-27.4-10.2z"/>
            <path fill="#F1E6E9" d="M280.2 148s-17.6 10.8-22.9 10.2c-5.4-.6-14.2-34.3-15.8-34.9-1.6-.6-9.4.8-8.3-13.9 1.1-14.8 21.5-37.7 21.5-37.7l25.5 76.3z"/>
            <path fill="#8180C4" d="M238.7 122.8s-5.3 7.5-6.9 9.8c-1.6 2.3-46.6-17.6-49.7-17.8-3-.2-7.3 5.3-7.3 5.3l59.7 27.8 13-22.1-8.8-3z"/>
            <path fill="#8180C4" d="M169.7 118.3c3 .4 55.7 22.2 56.9 22.4 1.2.2 29.6-44.6 27.7-47.7 0 0-7-7-.4-20.9 6.6-14 13.5-8.8 13.5-8.8s11.2 2.4 15.9 11.5c.7 1.3 1.2 2.7 1.6 4.2 4.4 11.7 16.7 44.3 21.3 50.5 5.6 7.6-38.1 28-38.1 28l-1.8-34.6c-13 19.8-27 35.2-36.7 38-14.4 4.3-65.7-36.7-65.7-36.7s2.8-6.3 5.8-5.9z"/>
            <path fill="#5C5E97" d="M266.3 122.9s8.3-19.1 8.7-24.1c.5-4.9-4.9 25.4-8.4 30.4l-.3-6.3z"/>
            <path fill="#000" d="M287 370.1c-8.4 1.6-16 7.3-19.8 15-.5 1.1-1 2.3-1 3.5 0 1.2.6 2.5 1.7 3 .7.3 1.4.3 2.1.2 6.6-.5 13-3.6 17.4-8.6.4-.5 1.1-.2 1.7-.3 1-.1 1.5.1 1.9 1 .8 1.7 2.1 5.4 2.6 5.6.6.2 6.7-.2 7.4-1.7.5-1.1-2.4-8.6-2.8-9.9-.6-2-1.3-4.1-1.9-6.1-.2-.5-.3-1-.6-1.4-1-1.1-2.7-.8-4.1-.2-1.4.5-3 1-4.2.1"/>
            <path fill="#FFE1C6" d="M231.7 27.3c0 2.6 6.7 3.8 11.5 3.6 2.2-.1 4.9 2.2 7.3 5 1 1.2 2.6-3.2 6.6 1.5 3.7 4.4-.7 7.4-.3 8.8.7 2.5 3.6 6.6 7.1 9.3-.2.1-.3.2-.5.3l4.7 7.5c-10.5-.8-11.6 6.4-12.6 6.6-1.1.3-4.8-7.4-4.8-7.4-3.4 1.1-6.4 1.2-8.5-.6 0 0-13.6-10.5-11.8-34.1 0 .2 1.3-3 1.3-.5z"/>
            <path fill="#000" d="M321.6 448.6c-12-.1-23.8 5.7-31.1 15.2-1 1.3-2 2.8-2.3 4.5-.3 1.7.2 3.6 1.6 4.5.8.6 1.8.7 2.8.9 9.2 1.1 18.7-1.5 26-7.1.7-.5 1.4-1.1 2.3-1 1.4.1 2.1 1.7 2.5 3 .7 2.6 1.2 5.2 1.5 7.9.1.7.2 1.5.9 1.9.8.4 8.5-.9 9.2-4.8.4-1.9-.1-9.4-.3-11.3-.3-3-.7-5.9-1-8.9-.1-.7-.2-1.4-.5-2-1-1.8-3.5-1.8-5.5-1.4-2 .3-4.4.6-5.7-1"/>
            <path fill="#FFE1C6" d="M163.9 124.2s-5.3.8-6.5-2.5c-1.2-3.3-.4-4.8 0-4.7.4.1 2.5-.3 2.5-1.3s1.4-1.9 2.2-1.4c.9.4 7.6 4.1 7.6 4.1l-5.8 5.8z"/>
            <path fill="#FFE1C6" d="M182.1 114.9s-3.4-4.2-4.7-3.6c-1.3.6-.9 1-.9 1s-1.7-1.4-2.7-1.1c-1 .3-2.8 1.1-3.1 1.4-.3.3-1.2.1-1.5 1.6-.3 1.5-.2 2.6 0 3 .2.4.4 1.2.4 1.2l5.1 1.8 7.4-5.3zM315 443v6.4l18.4 2.2-2.9-9.3zM282.1 359.4l3.6 11h9.9l-4.4-12.2z"/>
        </g>
        <g>
            <path fill="#3F3C57" d="M147.3 77.3l18.9-.7c1.4 0 2.7.8 3 1.9l9.6 35.7c.3 1.1-.6 2.1-1.9 2.1l-18.9.7c-1.4 0-2.7-.8-3-1.9l-9.6-35.7c-.3-1.1.5-2.1 1.9-2.1z"/>
            <path fill="#E5E7EB" d="M159 78c.2 0 .4.1.5.3 0 .2-.1.3-.3.3-.2 0-.4-.1-.5-.3-.1-.1.1-.3.3-.3z"/>
            <path fill="#FFF" d="M167.9 79.2l9.3 34.6c.2.9-.4 1.6-1.5 1.6l-17.1.6c-1 0-2.1-.6-2.3-1.5L147 79.9c-.2-.9.4-1.6 1.5-1.6l2.6-.1.1.3c.2.7 1 1.3 1.9 1.2l8.7-.3c.9 0 1.4-.6 1.2-1.3l-.1-.3 2.7-.1c1-.1 2.1.6 2.3 1.5z"/>
        </g>
        <g fill="#000" fill-rule="nonzero">
            <path d="M159.5 94.3c-.2 0-.4-.2-.4-.4s.2-.4.4-.4.4.2.4.4-.2.4-.4.4zM167 93v.7l-1.8.1v.8l1.6-.1v.7l-1.6.1v.8l5.9-.4v.7l-6.7.5v-3.5l2.6-.4zm-5.3 3.2c.4 0 .7-.1.9-.3.2-.2.3-.5.3-.8 0-.3-.1-.5-.2-.7-.1-.2-.3-.3-.4-.3-.2-.1-.3-.1-.5-.1h-.6v2.2h.5zm-1.2-2.8l1.1-.1c.5 0 .9 0 1.2.2.3.2.5.4.7.6.1.3.2.6.2.9 0 .3-.1.6-.2.9-.2.3-.4.5-.7.6-.3.2-.6.3-.9.3l-1.3.1-.1-3.5zm-1.4 2.4V97l-.7.1V96l-1.4-2.3.9-.1.9 1.6.3.6zm-4.5-.2h.5c.2 0 .3-.1.4-.2.1-.1.1-.2.1-.4 0-.1 0-.2-.1-.4-.1-.1-.2-.2-.5-.1h-.5l.1 1.1zm1.3 1.7l-.8-1.1h-.5v1.1l-.7.1v-3.5l1.1-.1c.5 0 .8 0 1.1.2.3.2.4.5.4.8 0 .2 0 .4-.1.6-.1.2-.2.4-.4.5l.9 1.2-1 .2z"/>
        </g>
        <g>
            <path fill="#FF3C75" d="M518.3 191.7l10.6 3.5v.4h-10.6z"/>
            <path fill="#FF3C75" d="M518.3 191.6l10.6 3.5v.1l-10.6-3.5z"/>
            <path fill="#FF3D75" d="M518.3 191.5l10.6 3.5v.1l-10.6-3.5z"/>
            <path fill="#FF3E75" d="M518.3 191.3l10.6 3.6v.1l-10.6-3.5z"/>
            <path fill="#FF3F75" d="M518.3 191.2l10.6 3.6v.1l-10.6-3.6z"/>
            <path fill="#FF4075" d="M518.3 191.1l10.6 3.6v.1l-10.6-3.6z"/>
            <path fill="#FF4175" d="M518.3 191l10.6 3.5v.2l-10.6-3.6z"/>
            <path fill="#FF4275" d="M518.3 190.9l10.6 3.5v.1l-10.6-3.5z"/>
            <path fill="#FF4375" d="M518.3 190.8l10.6 3.5v.1l-10.6-3.5z"/>
            <path fill="#FF4575" d="M518.3 190.6l10.6 3.6v.1l-10.6-3.5z"/>
            <path fill="#FF4675" d="M518.3 190.5l10.6 3.6v.1l-10.6-3.6z"/>
            <path fill="#FF4775" d="M518.3 190.4l10.6 3.6v.1l-10.6-3.6z"/>
            <path fill="#FF4875" d="M518.3 190.3l10.6 3.5v.2l-10.6-3.6z"/>
            <path fill="#FF4975" d="M518.3 190.2l10.6 3.5v.1l-10.6-3.5z"/>
            <path fill="#FF4A75" d="M518.3 190.1l10.6 3.5v.1l-10.6-3.5z"/>
            <path fill="#FF4B75" d="M518.3 190l10.6 3.5v.1l-10.6-3.5z"/>
            <path fill="#FF4C75" d="M518.3 189.8l10.6 3.6v.1l-10.6-3.5z"/>
            <path fill="#FF4D75" d="M518.3 189.7l10.6 3.6v.1l-10.6-3.6z"/>
            <path fill="#FF4E75" d="M518.3 189.6l10.6 3.6v.1l-10.6-3.6z"/>
            <path fill="#FF4F75" d="M518.3 189.5l10.6 3.5v.2l-10.6-3.6z"/>
            <path fill="#FF5075" d="M518.3 189.4l10.6 3.5v.1l-10.6-3.5z"/>
            <path fill="#FF5175" d="M518.3 189.3l10.6 3.5v.1l-10.6-3.5z"/>
            <path fill="#FF5275" d="M518.3 189.1l10.6 3.6v.1l-10.6-3.5z"/>
            <path fill="#FF5475" d="M518.3 189l10.6 3.6v.1l-10.6-3.6z"/>
            <path fill="#FF5575" d="M518.3 188.9l10.6 3.6v.1l-10.6-3.6z"/>
            <path fill="#FF5675" d="M518.3 188.8l10.6 3.5v.2l-10.6-3.6z"/>
            <path fill="#FF5775" d="M518.3 188.7l10.6 3.5v.1l-10.6-3.5z"/>
            <path fill="#FF5875" d="M518.3 188.6l10.6 3.5v.1l-10.6-3.5z"/>
            <path fill="#FF5975" d="M518.3 188.4l10.6 3.6v.1l-10.6-3.5z"/>
            <path fill="#FF5A75" d="M518.3 188.3l10.6 3.6v.1l-10.6-3.6z"/>
            <path fill="#FF5B75" d="M518.3 188.2l10.6 3.6v.1l-10.6-3.6z"/>
            <path fill="#FF5C75" d="M518.3 188.1l10.6 3.5v.2l-10.6-3.6z"/>
            <path fill="#FF5D75" d="M518.3 188l10.6 3.5v.1l-10.6-3.5z"/>
            <path fill="#FF5E75" d="M518.3 187.9l10.6 3.5v.1l-10.6-3.5z"/>
            <path fill="#FF5F75" d="M518.3 187.8l10.6 3.5v.1l-10.6-3.5z"/>
            <path fill="#FF6075" d="M518.3 187.6l10.6 3.6v.1l-10.6-3.5z"/>
            <path fill="#FF6275" d="M518.3 187.5l10.6 3.6v.1l-10.6-3.6z"/>
            <path fill="#FF6375" d="M518.3 187.4l10.6 3.6v.1l-10.6-3.6z"/>
            <path fill="#FF6475" d="M518.3 187.3l10.6 3.5v.2l-10.6-3.6z"/>
            <path fill="#FF6575" d="M518.3 187.2l10.6 3.5v.1l-10.6-3.5z"/>
            <path fill="#FF6674" d="M518.3 187.1l10.6 3.5v.1l-10.6-3.5z"/>
            <path fill="#FF6774" d="M518.3 186.9l10.6 3.6v.1l-10.6-3.5z"/>
            <path fill="#FF6974" d="M518.3 186.8l10.6 3.6v.1l-10.6-3.6z"/>
            <path fill="#FF6A74" d="M518.3 186.7l10.6 3.6v.1l-10.6-3.6z"/>
            <path fill="#FF6B74" d="M518.3 186.6l10.6 3.5v.2l-10.6-3.6z"/>
            <path fill="#FF6C74" d="M518.3 186.5l10.6 3.5v.1l-10.6-3.5z"/>
            <path fill="#FF6D74" d="M518.3 186.4l10.6 3.5v.1l-10.6-3.5z"/>
            <path fill="#FF6E74" d="M518.3 186.2l10.6 3.6v.1l-10.6-3.5z"/>
            <path fill="#FF6F74" d="M518.3 186.1l10.6 3.6v.1l-10.6-3.6z"/>
            <path fill="#FF7074" d="M518.3 186l10.6 3.6v.1l-10.6-3.6z"/>
            <path fill="#FF7174" d="M518.3 185.9l10.6 3.6v.1l-10.6-3.6z"/>
            <path fill="#FF7274" d="M518.3 185.8l10.6 3.5v.2l-10.6-3.6z"/>
            <path fill="#FF7374" d="M518.3 185.7l10.6 3.5v.1l-10.6-3.5z"/>
            <path fill="#FF7474" d="M518.3 185.6l10.6 3.5v.1l-10.6-3.5z"/>
            <path fill="#FF7574" d="M518.3 185.4l10.6 3.6v.1l-10.6-3.5z"/>
            <path fill="#FF7674" d="M518.3 185.3l10.6 3.6v.1l-10.6-3.6z"/>
            <path fill="#FF7774" d="M518.3 185.2l10.6 3.6v.1l-10.6-3.6z"/>
            <path fill="#FF7874" d="M518.3 185.1l10.6 3.5v.2l-10.6-3.6z"/>
            <path fill="#FF7974" d="M518.5 185l10.4 3.5v.1l-10.6-3.5v-.1z"/>
            <path fill="#FF7A74" d="M518.8 185l10.1 3.4v.1l-10.4-3.5z"/>
            <path fill="#FF7B74" d="M519.2 185l9.7 3.3v.1l-10.1-3.4z"/>
            <path fill="#FF7C74" d="M519.5 185l9.4 3.2v.1l-9.7-3.3z"/>
            <path fill="#FF7D74" d="M519.9 185l9 3.1v.1l-9.4-3.2z"/>
            <path fill="#FF7E74" d="M520.2 185l8.7 2.9v.2l-9-3.1z"/>
            <path fill="#FF7F74" d="M520.6 185l8.3 2.8v.1l-8.7-2.9z"/>
            <path fill="#FF8074" d="M520.9 185l8 2.7v.1l-8.3-2.8zM521.2 185l7.7 2.6v.1l-8-2.7z"/>
            <path fill="#FF8174" d="M521.6 185l7.3 2.5v.1l-7.7-2.6z"/>
            <path fill="#FF8274" d="M521.9 185l7 2.4v.1l-7.3-2.5z"/>
            <path fill="#FF8374" d="M522.3 185l6.6 2.3v.1l-7-2.4z"/>
            <path fill="#FF8474" d="M522.6 185l6.3 2.1v.2l-6.6-2.3z"/>
            <path fill="#FF8474" d="M528.9 187.1l-6.3-2.1h6.3z"/>
            <path fill="url(#c)" d="M43.8 70.8L0 4.4h106.4v2H3.7l41.8 63.3z" transform="translate(479 120)"/>
            <g>
                <path fill="#FF3C75" d="M577.5 126.6l9.2 3.1v.3h-9.2z"/>
                <path fill="#FF3C75" d="M577.5 126.5l9.2 3.1v.1l-9.2-3.1z"/>
                <path fill="#FF3D75" d="M577.5 126.4l9.2 3.1v.1l-9.2-3.1z"/>
                <path fill="#FF3E75" d="M577.5 126.3l9.2 3.1v.1l-9.2-3.1z"/>
                <path fill="#FF3F75" d="M577.5 126.2l9.2 3.1v.1l-9.2-3.1z"/>
                <path fill="#FF4075" d="M577.5 126.1l9.2 3.1v.1l-9.2-3.1z"/>
                <path fill="#FF4175" d="M577.5 126l9.2 3.1v.1l-9.2-3.1z"/>
                <path fill="#FF4275" d="M577.5 125.9l9.2 3.1v.1l-9.2-3.1z"/>
                <path fill="#FF4375" d="M577.5 125.8l9.2 3.1v.1l-9.2-3.1z"/>
                <path fill="#FF4575" d="M577.5 125.7l9.2 3.1v.1l-9.2-3.1z"/>
                <path fill="#FF4675" d="M577.5 125.6l9.2 3.1v.1l-9.2-3.1z"/>
                <path fill="#FF4775" d="M577.5 125.5l9.2 3.1v.1l-9.2-3.1z"/>
                <path fill="#FF4875" d="M577.5 125.4l9.2 3.1v.1l-9.2-3.1z"/>
                <path fill="#FF4975" d="M577.5 125.3l9.2 3.1v.1l-9.2-3.1z"/>
                <path fill="#FF4A75" d="M577.5 125.2l9.2 3.1v.1l-9.2-3.1z"/>
                <path fill="#FF4B75" d="M577.5 125.1l9.2 3.1v.1l-9.2-3.1z"/>
                <path fill="#FF4C75" d="M577.5 125l9.2 3.1v.1l-9.2-3.1z"/>
                <path fill="#FF4D75" d="M577.5 124.9l9.2 3.1v.1l-9.2-3.1z"/>
                <path fill="#FF4E75" d="M577.5 124.8l9.2 3.1v.1l-9.2-3.1z"/>
                <path fill="#FF4F75" d="M577.5 124.7l9.2 3.1v.1l-9.2-3.1z"/>
                <path fill="#FF5075" d="M577.5 124.6l9.2 3.1v.1l-9.2-3.1z"/>
                <path fill="#FF5175" d="M577.5 124.5l9.2 3.1v.1l-9.2-3.1z"/>
                <path fill="#FF5275" d="M577.5 124.4l9.2 3.1v.1l-9.2-3.1z"/>
                <path fill="#FF5475" d="M577.5 124.3l9.2 3.1v.1l-9.2-3.1z"/>
                <path fill="#FF5575" d="M577.5 124.2l9.2 3.1v.1l-9.2-3.1z"/>
                <path fill="#FF5675" d="M577.5 124.1l9.2 3.1v.1l-9.2-3.1z"/>
                <path fill="#FF5775" d="M577.5 124l9.2 3.1v.1l-9.2-3.1z"/>
                <path fill="#FF5875" d="M577.5 123.9l9.2 3.1v.1l-9.2-3.1z"/>
                <path fill="#FF5975" d="M577.5 123.8l9.2 3.1v.1l-9.2-3.1z"/>
                <path fill="#FF5A75" d="M577.5 123.7l9.2 3.1v.1l-9.2-3.1z"/>
                <path fill="#FF5B75" d="M577.5 123.6l9.2 3.1v.1l-9.2-3.1z"/>
                <path fill="#FF5C75" d="M577.5 123.5l9.2 3.1v.1l-9.2-3.1z"/>
                <path fill="#FF5D75" d="M577.5 123.4l9.2 3.1v.1l-9.2-3.1z"/>
                <path fill="#FF5E75" d="M577.5 123.3l9.2 3.1v.1l-9.2-3.1z"/>
                <path fill="#FF5F75" d="M577.5 123.2l9.2 3.1v.1l-9.2-3.1z"/>
                <path fill="#FF6075" d="M577.5 123.1l9.2 3.1v.1l-9.2-3.1z"/>
                <path fill="#FF6275" d="M577.5 123l9.2 3.1v.1l-9.2-3.1z"/>
                <path fill="#FF6375" d="M577.5 122.9l9.2 3.1v.1l-9.2-3.1z"/>
                <path fill="#FF6475" d="M577.5 122.8l9.2 3.1v.1l-9.2-3.1z"/>
                <path fill="#FF6575" d="M577.5 122.7l9.2 3.1v.1l-9.2-3.1z"/>
                <path fill="#FF6674" d="M577.5 122.6l9.2 3.1v.1l-9.2-3.1z"/>
                <path fill="#FF6774" d="M577.5 122.5l9.2 3.1v.1l-9.2-3.1z"/>
                <path fill="#FF6974" d="M577.5 122.4l9.2 3.1v.1l-9.2-3.1z"/>
                <path fill="#FF6A74" d="M577.5 122.3l9.2 3.1v.1l-9.2-3.1z"/>
                <path fill="#FF6B74" d="M577.5 122.2l9.2 3.1v.1l-9.2-3.1z"/>
                <path fill="#FF6C74" d="M577.5 122.1l9.2 3.1v.1l-9.2-3.1z"/>
                <path fill="#FF6D74" d="M577.5 122l9.2 3.1v.1l-9.2-3.1z"/>
                <path fill="#FF6E74" d="M577.5 121.9l9.2 3.1v.1l-9.2-3.1z"/>
                <path fill="#FF6F74" d="M577.5 121.8l9.2 3.1v.1l-9.2-3.1z"/>
                <path fill="#FF7074" d="M577.5 121.7l9.2 3.1v.1l-9.2-3.1z"/>
                <path fill="#FF7174" d="M577.5 121.6l9.2 3.1v.1l-9.2-3.1z"/>
                <path fill="#FF7274" d="M577.5 121.5l9.2 3.1v.1l-9.2-3.1z"/>
                <path fill="#FF7374" d="M577.5 121.4l9.2 3.1v.1l-9.2-3.1z"/>
                <path fill="#FF7474" d="M577.5 121.3l9.2 3.1v.1l-9.2-3.1z"/>
                <path fill="#FF7574" d="M577.5 121.2l9.2 3.1v.1l-9.2-3.1z"/>
                <path fill="#FF7674" d="M577.5 121.1l9.2 3.1v.1l-9.2-3.1z"/>
                <path fill="#FF7774" d="M577.5 121l9.2 3v.2l-9.2-3.1z"/>
                <path fill="#FF7874" d="M577.5 120.9l9.2 3v.1l-9.2-3z"/>
                <path fill="#FF7974" d="M577.6 120.8l9.1 3v.1l-9.2-3v-.1z"/>
                <path fill="#FF7A74" d="M577.9 120.8l8.8 2.9v.1l-9.1-3z"/>
                <path fill="#FF7B74" d="M578.2 120.8l8.5 2.8v.1l-8.8-2.9z"/>
                <path fill="#FF7C74" d="M578.5 120.8l8.2 2.7v.1l-8.5-2.8z"/>
                <path fill="#FF7D74" d="M578.8 120.8l7.9 2.6v.1l-8.2-2.7z"/>
                <path fill="#FF7E74" d="M579.1 120.8l7.6 2.5v.1l-7.9-2.6z"/>
                <path fill="#FF7F74" d="M579.4 120.8l7.3 2.4v.1l-7.6-2.5z"/>
                <path fill="#FF8074" d="M579.7 120.8l7 2.3v.1l-7.3-2.4z"/>
                <path fill="#FF8074" d="M580 120.8l6.7 2.2v.1l-7-2.3z"/>
                <path fill="#FF8174" d="M580.3 120.8l6.4 2.1v.1l-6.7-2.2z"/>
                <path fill="#FF8274" d="M580.6 120.8l6.1 2v.1l-6.4-2.1z"/>
                <path fill="#FF8374" d="M580.9 120.8l5.8 1.9v.1l-6.1-2z"/>
                <path fill="#FF8474" d="M581.2 120.8l5.5 1.8v.1l-5.8-1.9z"/>
                <path fill="#FF8474" d="M586.7 122.6l-5.5-1.8h5.5z"/>
            </g>
        </g>
        <g>
            <path fill="#FF3C75" d="M580.1 297.7l-9.5-5.9h9.5z"/>
            <path fill="#FF3C75" d="M580.1 297.8l-9.7-6h.2l9.5 5.9z"/>
            <path fill="#FF3D75" d="M580.1 297.9l-9.9-6.1h.2l9.7 6z"/>
            <path fill="#FF3E75" d="M580.1 298.1l-10.1-6.3h.2l9.9 6.1z"/>
            <path fill="#FF3F75" d="M580.1 298.2l-10.4-6.4h.3l10.1 6.3z"/>
            <path fill="#FF4075" d="M580.1 298.3l-10.6-6.5h.2l10.4 6.4z"/>
            <path fill="#FF4175" d="M580.1 298.4l-10.8-6.6h.2l10.6 6.5z"/>
            <path fill="#FF4275" d="M580.1 298.6l-11-6.8h.2l10.8 6.6z"/>
            <path fill="#FF4375" d="M580.1 298.7l-11.2-6.9h.2l11 6.8z"/>
            <path fill="#FF4575" d="M580.1 298.8l-11.4-7h.2l11.2 6.9z"/>
            <path fill="#FF4675" d="M580.1 299l-11.6-7.1v-.1h.2l11.4 7z"/>
            <path fill="#FF4775" d="M580.1 299.1l-11.6-7.1v-.1l11.6 7.1z"/>
            <path fill="#FF4875" d="M580.1 299.2l-11.6-7.1v-.1l11.6 7.1z"/>
            <path fill="#FF4975" d="M580.1 299.3l-11.6-7.1v-.1l11.6 7.1z"/>
            <path fill="#FF4A75" d="M580.1 299.5l-11.6-7.1v-.2l11.6 7.1z"/>
            <path fill="#FF4B75" d="M580.1 299.6l-11.6-7.1v-.1l11.6 7.1z"/>
            <path fill="#FF4C75" d="M580.1 299.7l-11.6-7.1v-.1l11.6 7.1z"/>
            <path fill="#FF4D75" d="M580.1 299.9l-11.6-7.2v-.1l11.6 7.1z"/>
            <path fill="#FF4E75" d="M580.1 300l-11.6-7.1v-.2l11.6 7.2z"/>
            <path fill="#FF4F75" d="M580.1 300.1l-11.6-7.1v-.1l11.6 7.1z"/>
            <path fill="#FF5075" d="M580.1 300.2l-11.6-7.1v-.1l11.6 7.1z"/>
            <path fill="#FF5175" d="M580.1 300.4l-11.6-7.1v-.2l11.6 7.1z"/>
            <path fill="#FF5275" d="M580.1 300.5l-11.6-7.1v-.1l11.6 7.1z"/>
            <path fill="#FF5475" d="M580.1 300.6l-11.6-7.1v-.1l11.6 7.1z"/>
            <path fill="#FF5575" d="M580.1 300.8l-11.6-7.2v-.1l11.6 7.1z"/>
            <path fill="#FF5675" d="M580.1 300.9l-11.6-7.1v-.2l11.6 7.2z"/>
            <path fill="#FF5775" d="M580.1 301l-11.6-7.1v-.1l11.6 7.1z"/>
            <path fill="#FF5875" d="M580.1 301.1l-11.6-7.1v-.1l11.6 7.1z"/>
            <path fill="#FF5975" d="M580.1 301.3l-11.6-7.1v-.2l11.6 7.1z"/>
            <path fill="#FF5A75" d="M580.1 301.4l-11.6-7.1v-.1l11.6 7.1z"/>
            <path fill="#FF5B75" d="M580.1 301.5l-11.6-7.1v-.1l11.6 7.1z"/>
            <path fill="#FF5C75" d="M580.1 301.7l-11.6-7.2v-.1l11.6 7.1z"/>
            <path fill="#FF5D75" d="M580.1 301.8l-11.6-7.1v-.2l11.6 7.2z"/>
            <path fill="#FF5E75" d="M580.1 301.9l-11.6-7.1v-.1l11.6 7.1z"/>
            <path fill="#FF5F75" d="M580.1 302l-11.6-7.1v-.1l11.6 7.1z"/>
            <path fill="#FF6075" d="M580.1 302.2l-11.6-7.1v-.2l11.6 7.1z"/>
            <path fill="#FF6275" d="M580.1 302.3l-11.6-7.1v-.1l11.6 7.1z"/>
            <path fill="#FF6375" d="M580.1 302.4l-11.6-7.1v-.1l11.6 7.1z"/>
            <path fill="#FF6475" d="M580.1 302.6l-11.6-7.2v-.1l11.6 7.1z"/>
            <path fill="#FF6575" d="M580.1 302.7l-11.6-7.1v-.2l11.6 7.2z"/>
            <path fill="#FF6674" d="M580.1 302.8l-11.6-7.1v-.1l11.6 7.1z"/>
            <path fill="#FF6774" d="M580.1 302.9l-11.6-7.1v-.1l11.6 7.1z"/>
            <path fill="#FF6974" d="M580.1 303.1l-11.6-7.1v-.2l11.6 7.1z"/>
            <path fill="#FF6A74" d="M580.1 303.2l-11.6-7.1v-.1l11.6 7.1z"/>
            <path fill="#FF6B74" d="M580.1 303.3l-11.6-7.1v-.1l11.6 7.1z"/>
            <path fill="#FF6C74" d="M580.1 303.3l-.1.1-11.5-7.1v-.1z"/>
            <path fill="#FF6D74" d="M579.8 303.4l-11.3-6.9v-.2l11.5 7.1z"/>
            <path fill="#FF6E74" d="M579.6 303.4l-11.1-6.8v-.1l11.3 6.9z"/>
            <path fill="#FF6F74" d="M579.4 303.4l-10.9-6.7v-.1l11.1 6.8z"/>
            <path fill="#FF7074" d="M579.2 303.4l-10.7-6.5v-.2l10.9 6.7z"/>
            <path fill="#FF7174" d="M578.9 303.4l-10.4-6.4v-.1l10.7 6.5z"/>
            <path fill="#FF7274" d="M578.7 303.4l-10.2-6.3v-.1l10.4 6.4z"/>
            <path fill="#FF7374" d="M578.5 303.4l-10-6.2v-.1l10.2 6.3z"/>
            <path fill="#FF7474" d="M578.3 303.4l-9.8-6v-.2l10 6.2z"/>
            <path fill="#FF7574" d="M578.1 303.4l-9.6-5.9v-.1l9.8 6z"/>
            <path fill="#FF7674" d="M577.9 303.4l-9.4-5.8v-.1l9.6 5.9z"/>
            <path fill="#FF7774" d="M577.7 303.4l-9.2-5.6v-.2l9.4 5.8z"/>
            <path fill="#FF7874" d="M577.5 303.4l-9-5.5v-.1l9.2 5.6z"/>
            <path fill="#FF7974" d="M577.3 303.4l-8.8-5.4v-.1l9 5.5z"/>
            <path fill="#FF7A74" d="M577.1 303.4l-8.6-5.3v-.1l8.8 5.4z"/>
            <path fill="#FF7B74" d="M576.9 303.4l-8.4-5.1v-.2l8.6 5.3z"/>
            <path fill="#FF7C74" d="M576.6 303.4l-8.1-5v-.1l8.4 5.1z"/>
            <path fill="#FF7D74" d="M576.4 303.4l-7.9-4.9v-.1l8.1 5z"/>
            <path fill="#FF7E74" d="M576.2 303.4l-7.7-4.7v-.2l7.9 4.9z"/>
            <path fill="#FF7F74" d="M576 303.4l-7.5-4.6v-.1l7.7 4.7z"/>
            <path fill="#FF8074" d="M575.8 303.4l-7.3-4.5v-.1l7.5 4.6z"/>
            <path fill="#FF8074" d="M575.6 303.4l-7.1-4.4v-.1l7.3 4.5z"/>
            <path fill="#FF8174" d="M575.4 303.4l-6.9-4.2v-.2l7.1 4.4z"/>
            <path fill="#FF8274" d="M575.2 303.4l-6.7-4.1v-.1l6.9 4.2z"/>
            <path fill="#FF8374" d="M575 303.4l-6.5-4v-.1l6.7 4.1z"/>
            <path fill="#FF8474" d="M574.8 303.4l-6.3-3.8v-.2l6.5 4zM568.5 299.6l6.3 3.8h-6.3z"/>
            <path fill="url(#d)" d="M106 80.9L2.3 57l.4-1.9 100.1 23L76.3 7l1.9-.7z" transform="translate(497 291)"/>
            <g>
                <path fill="#FF3C75" d="M507.8 347.8l-8.3-5.1h8.3z"/>
                <path fill="#FF3C75" d="M507.8 347.9l-8.4-5.2h.1l8.3 5.1z"/>
                <path fill="#FF3D75" d="M507.8 348l-8.6-5.3h.2l8.4 5.2z"/>
                <path fill="#FF3E75" d="M507.8 348.1l-8.8-5.4h.2l8.6 5.3z"/>
                <path fill="#FF3F75" d="M507.8 348.3l-9-5.6h.2l8.8 5.4z"/>
                <path fill="#FF4075" d="M507.8 348.4l-9.2-5.7h.2l9 5.6z"/>
                <path fill="#FF4175" d="M507.8 348.5l-9.4-5.8h.2l9.2 5.7z"/>
                <path fill="#FF4275" d="M507.8 348.6l-9.5-5.9h.1l9.4 5.8z"/>
                <path fill="#FF4375" d="M507.8 348.7l-9.7-6h.2l9.5 5.9z"/>
                <path fill="#FF4575" d="M507.8 348.8l-9.9-6.1h.2l9.7 6z"/>
                <path fill="#FF4675" d="M507.8 348.9l-10.1-6.2h.2l9.9 6.1z"/>
                <path fill="#FF4775" d="M507.8 349l-10.1-6.1v-.2l10.1 6.2z"/>
                <path fill="#FF4875" d="M507.8 349.2l-10.1-6.2v-.1l10.1 6.1z"/>
                <path fill="#FF4975" d="M507.8 349.3l-10.1-6.2v-.1l10.1 6.2z"/>
                <path fill="#FF4A75" d="M507.8 349.4l-10.1-6.2v-.1l10.1 6.2z"/>
                <path fill="#FF4B75" d="M507.8 349.5l-10.1-6.2v-.1l10.1 6.2z"/>
                <path fill="#FF4C75" d="M507.8 349.6l-10.1-6.2v-.1l10.1 6.2z"/>
                <path fill="#FF4D75" d="M507.8 349.7l-10.1-6.2v-.1l10.1 6.2z"/>
                <path fill="#FF4E75" d="M507.8 349.8l-10.1-6.2v-.1l10.1 6.2z"/>
                <path fill="#FF4F75" d="M507.8 349.9l-10.1-6.1v-.2l10.1 6.2z"/>
                <path fill="#FF5075" d="M507.8 350.1l-10.1-6.2v-.1l10.1 6.1z"/>
                <path fill="#FF5175" d="M507.8 350.2l-10.1-6.2v-.1l10.1 6.2z"/>
                <path fill="#FF5275" d="M507.8 350.3l-10.1-6.2v-.1l10.1 6.2z"/>
                <path fill="#FF5475" d="M507.8 350.4l-10.1-6.2v-.1l10.1 6.2z"/>
                <path fill="#FF5575" d="M507.8 350.5l-10.1-6.2v-.1l10.1 6.2z"/>
                <path fill="#FF5675" d="M507.8 350.6l-10.1-6.2v-.1l10.1 6.2z"/>
                <path fill="#FF5775" d="M507.8 350.7l-10.1-6.2v-.1l10.1 6.2z"/>
                <path fill="#FF5875" d="M507.8 350.8l-10.1-6.2v-.1l10.1 6.2z"/>
                <path fill="#FF5975" d="M507.8 350.9l-10.1-6.1v-.2l10.1 6.2z"/>
                <path fill="#FF5A75" d="M507.8 351.1l-10.1-6.2v-.1l10.1 6.1z"/>
                <path fill="#FF5B75" d="M507.8 351.2l-10.1-6.2v-.1l10.1 6.2z"/>
                <path fill="#FF5C75" d="M507.8 351.3l-10.1-6.2v-.1l10.1 6.2z"/>
                <path fill="#FF5D75" d="M507.8 351.4l-10.1-6.2v-.1l10.1 6.2z"/>
                <path fill="#FF5E75" d="M507.8 351.5l-10.1-6.2v-.1l10.1 6.2z"/>
                <path fill="#FF5F75" d="M507.8 351.6l-10.1-6.2v-.1l10.1 6.2z"/>
                <path fill="#FF6075" d="M507.8 351.7l-10.1-6.2v-.1l10.1 6.2z"/>
                <path fill="#FF6275" d="M507.8 351.8l-10.1-6.1v-.2l10.1 6.2z"/>
                <path fill="#FF6375" d="M507.8 352l-10.1-6.2v-.1l10.1 6.1z"/>
                <path fill="#FF6475" d="M507.8 352.1l-10.1-6.2v-.1l10.1 6.2z"/>
                <path fill="#FF6575" d="M507.8 352.2l-10.1-6.2v-.1l10.1 6.2z"/>
                <path fill="#FF6674" d="M507.8 352.3l-10.1-6.2v-.1l10.1 6.2z"/>
                <path fill="#FF6774" d="M507.8 352.4l-10.1-6.2v-.1l10.1 6.2z"/>
                <path fill="#FF6974" d="M507.8 352.5l-10.1-6.2v-.1l10.1 6.2z"/>
                <path fill="#FF6A74" d="M507.8 352.6l-10.1-6.2v-.1l10.1 6.2z"/>
                <path fill="#FF6B74" d="M507.8 352.7l-10.1-6.1v-.2l10.1 6.2z"/>
                <path fill="#FF6C74" d="M507.7 352.8l-10-6.1v-.1l10.1 6.1v.1z"/>
                <path fill="#FF6D74" d="M507.5 352.8l-9.8-6v-.1l10 6.1z"/>
                <path fill="#FF6E74" d="M507.4 352.8l-9.7-5.9v-.1l9.8 6z"/>
                <path fill="#FF6F74" d="M507.2 352.8l-9.5-5.8v-.1l9.7 5.9z"/>
                <path fill="#FF7074" d="M507 352.8l-9.3-5.7v-.1l9.5 5.8z"/>
                <path fill="#FF7174" d="M506.8 352.8l-9.1-5.6v-.1l9.3 5.7z"/>
                <path fill="#FF7274" d="M506.6 352.8l-8.9-5.5v-.1l9.1 5.6z"/>
                <path fill="#FF7374" d="M506.4 352.8l-8.7-5.4v-.1l8.9 5.5z"/>
                <path fill="#FF7474" d="M506.3 352.8l-8.6-5.2v-.2l8.7 5.4z"/>
                <path fill="#FF7574" d="M506.1 352.8l-8.4-5.1v-.1l8.6 5.2z"/>
                <path fill="#FF7674" d="M505.9 352.8l-8.2-5v-.1l8.4 5.1z"/>
                <path fill="#FF7774" d="M505.7 352.8l-8-4.9v-.1l8.2 5z"/>
                <path fill="#FF7874" d="M505.5 352.8l-7.8-4.8v-.1l8 4.9z"/>
                <path fill="#FF7974" d="M505.4 352.8l-7.7-4.7v-.1l7.8 4.8z"/>
                <path fill="#FF7A74" d="M505.2 352.8l-7.5-4.6v-.1l7.7 4.7z"/>
                <path fill="#FF7B74" d="M505 352.8l-7.3-4.5v-.1l7.5 4.6z"/>
                <path fill="#FF7C74" d="M504.8 352.8l-7.1-4.3v-.2l7.3 4.5z"/>
                <path fill="#FF7D74" d="M504.6 352.8l-6.9-4.2v-.1l7.1 4.3z"/>
                <path fill="#FF7E74" d="M504.4 352.8l-6.7-4.1v-.1l6.9 4.2z"/>
                <path fill="#FF7F74" d="M504.3 352.8l-6.6-4v-.1l6.7 4.1z"/>
                <path fill="#FF8074" d="M504.1 352.8l-6.4-3.9v-.1l6.6 4z"/>
                <path fill="#FF8074" d="M503.9 352.8l-6.2-3.8v-.1l6.4 3.9z"/>
                <path fill="#FF8174" d="M503.7 352.8l-6-3.7v-.1l6.2 3.8z"/>
                <path fill="#FF8274" d="M503.5 352.8l-5.8-3.6v-.1l6 3.7z"/>
                <path fill="#FF8374" d="M503.4 352.8l-5.7-3.5v-.1l5.8 3.6z"/>
                <path fill="#FF8474" d="M503.2 352.8l-5.5-3.3v-.2l5.7 3.5z"/>
                <path fill="#FF8474" d="M497.7 349.5l5.5 3.3h-5.5z"/>
            </g>
        </g>
        <path fill="url(#e)" d="M88.8 58.2c-3.4 4.1-30 16-41 13s-20-8-8-25 22-1 32-8 22 14 17 20z"/>
    </g>
</svg>
