<svg xmlns="http://www.w3.org/2000/svg" width="696" height="742" viewBox="0 0 696 742">
    <defs>
        <linearGradient id="a" x1="-1.767%" x2="82.839%" y1="62.564%" y2="12.813%">
            <stop offset="0%" stop-color="#FF4077"/>
            <stop offset="100%" stop-color="#FC9A1A"/>
        </linearGradient>
        <linearGradient id="b" x1="13.577%" x2="60.042%" y1="60.255%" y2="39.873%">
            <stop offset="0%" stop-color="#FF4077"/>
            <stop offset="100%" stop-color="#FC9A1A"/>
        </linearGradient>
        <linearGradient id="c" x1="14.116%" x2="69.922%" y1="66.099%" y2="36.947%">
            <stop offset="0%" stop-color="#FF4077"/>
            <stop offset="100%" stop-color="#FC9A1A"/>
        </linearGradient>
        <linearGradient id="d" x1="78.69%" x2="6.35%" y1="27.273%" y2="64.498%">
            <stop offset="0%" stop-color="#FF4077"/>
            <stop offset="100%" stop-color="#FC9A1A"/>
        </linearGradient>
        <linearGradient id="e" x1="69.697%" x2="30.481%" y1="37.127%" y2="53.526%">
            <stop offset="0%" stop-color="#FF4077"/>
            <stop offset="100%" stop-color="#FC9A1A"/>
        </linearGradient>
        <linearGradient id="f" x1="78.703%" x2="26.484%" y1="28.294%" y2="53.744%">
            <stop offset="0%" stop-color="#FF4077"/>
            <stop offset="100%" stop-color="#FC9A1A"/>
        </linearGradient>
        <linearGradient id="g" x1="52.547%" x2="78.364%" y1="38.593%" y2="107.096%">
            <stop offset="0%" stop-color="#FF4077"/>
            <stop offset="100%" stop-color="#FF8677"/>
        </linearGradient>
        <linearGradient id="h" x1="-.005%" x2="99.992%" y1="49.994%" y2="49.994%">
            <stop offset="0%" stop-color="#FF4077"/>
            <stop offset="100%" stop-color="#FF8677"/>
        </linearGradient>
        <linearGradient id="i" x1="52.699%" x2="77.767%" y1="38.863%" y2="107.363%">
            <stop offset="0%" stop-color="#FF4077"/>
            <stop offset="100%" stop-color="#FF8677"/>
        </linearGradient>
        <linearGradient id="j" x1="52.73%" x2="77.796%" y1="38.867%" y2="107.378%">
            <stop offset="0%" stop-color="#FF4077"/>
            <stop offset="100%" stop-color="#FF8677"/>
        </linearGradient>
        <linearGradient id="k" x1=".056%" x2="100.056%" y1="50.119%" y2="50.119%">
            <stop offset="0%" stop-color="#FF4077"/>
            <stop offset="100%" stop-color="#FF8677"/>
        </linearGradient>
        <linearGradient id="l" x1=".08%" x2="100.102%" y1="49.952%" y2="49.952%">
            <stop offset="0%" stop-color="#FF4077"/>
            <stop offset="100%" stop-color="#FF8677"/>
        </linearGradient>
        <linearGradient id="m" x1="-.29%" x2="100.01%" y1="49.992%" y2="49.992%">
            <stop offset="0%" stop-color="#FF4077"/>
            <stop offset="100%" stop-color="#FF8677"/>
        </linearGradient>
        <linearGradient id="n" x1="-.164%" x2="99.864%" y1="50.043%" y2="50.043%">
            <stop offset="0%" stop-color="#FF4077"/>
            <stop offset="100%" stop-color="#FF8677"/>
        </linearGradient>
        <linearGradient id="o" x1="-.069%" x2="100.432%" y1="50.238%" y2="50.238%">
            <stop offset="0%" stop-color="#FF4077"/>
            <stop offset="100%" stop-color="#FF8677"/>
        </linearGradient>
        <linearGradient id="p" x1="-.216%" x2="99.706%" y1="49.72%" y2="49.72%">
            <stop offset="0%" stop-color="#FF4077"/>
            <stop offset="100%" stop-color="#FF8677"/>
        </linearGradient>
        <linearGradient id="q" x1="-.069%" y1="49.675%" y2="49.675%">
            <stop offset="0%" stop-color="#FF4077"/>
            <stop offset="100%" stop-color="#FF8677"/>
        </linearGradient>
        <linearGradient id="r" x1=".252%" x2="100.143%" y1="50.235%" y2="50.235%">
            <stop offset="0%" stop-color="#FF4077"/>
            <stop offset="100%" stop-color="#FF8677"/>
        </linearGradient>
        <linearGradient id="s" x1=".235%" x2="100.085%" y1="50.154%" y2="50.154%">
            <stop offset="0%" stop-color="#FF4077"/>
            <stop offset="100%" stop-color="#FF8677"/>
        </linearGradient>
        <linearGradient id="t" x1="-.072%" x2="100.155%" y1="50.069%" y2="50.069%">
            <stop offset="0%" stop-color="#FF4077"/>
            <stop offset="100%" stop-color="#FF8677"/>
        </linearGradient>
        <linearGradient id="u" x1=".082%" x2="100.143%" y1="50.277%" y2="50.277%">
            <stop offset="0%" stop-color="#FF4077"/>
            <stop offset="100%" stop-color="#FF8677"/>
        </linearGradient>
        <linearGradient id="v" x1=".175%" x2="100.709%" y1="49.957%" y2="49.957%">
            <stop offset="0%" stop-color="#FF4077"/>
            <stop offset="100%" stop-color="#FF8677"/>
        </linearGradient>
        <linearGradient id="w" x1="1.99%" x2="100.742%" y1="50.93%" y2="50.93%">
            <stop offset="0%" stop-color="#FF4077"/>
            <stop offset="100%" stop-color="#FF8677"/>
        </linearGradient>
        <linearGradient id="x" x1=".186%" x2="99.846%" y1="50.786%" y2="50.786%">
            <stop offset="0%" stop-color="#FF4077"/>
            <stop offset="100%" stop-color="#FF8677"/>
        </linearGradient>
        <linearGradient id="y" x1=".968%" x2="100.476%" y1="50.019%" y2="50.019%">
            <stop offset="0%" stop-color="#FF4077"/>
            <stop offset="100%" stop-color="#FF8677"/>
        </linearGradient>
        <linearGradient id="z" x1="-.236%" x2="100.249%" y1="50.303%" y2="50.303%">
            <stop offset="0%" stop-color="#FF4077"/>
            <stop offset="100%" stop-color="#FF8677"/>
        </linearGradient>
        <linearGradient id="A" x1="-.071%" x2="100.815%" y1="48.826%" y2="48.826%">
            <stop offset="0%" stop-color="#FF4077"/>
            <stop offset="100%" stop-color="#FF8677"/>
        </linearGradient>
        <linearGradient id="B" x1=".017%" x2="100.087%" y1="49.153%" y2="49.153%">
            <stop offset="0%" stop-color="#FF4077"/>
            <stop offset="100%" stop-color="#FF8677"/>
        </linearGradient>
        <linearGradient id="C" x1=".899%" x2="100.414%" y1="50.094%" y2="50.094%">
            <stop offset="0%" stop-color="#FF4077"/>
            <stop offset="100%" stop-color="#FF8677"/>
        </linearGradient>
        <linearGradient id="D" x1=".042%" x2="100.042%" y1="50.09%" y2="50.09%">
            <stop offset="0%" stop-color="#FF4077"/>
            <stop offset="100%" stop-color="#FF8677"/>
        </linearGradient>
        <linearGradient id="E" x1=".007%" x2="99.916%" y1="50.099%" y2="50.099%">
            <stop offset="0%" stop-color="#FF4077"/>
            <stop offset="100%" stop-color="#FF8677"/>
        </linearGradient>
        <linearGradient id="F" x1=".115%" x2="100.085%" y1="50.027%" y2="50.027%">
            <stop offset="0%" stop-color="#FF4077"/>
            <stop offset="100%" stop-color="#FF8677"/>
        </linearGradient>
        <linearGradient id="G" x1=".028%" x2="99.924%" y1="49.956%" y2="49.956%">
            <stop offset="3.514%" stop-color="#455A63"/>
            <stop offset="100%" stop-color="#454954"/>
        </linearGradient>
        <linearGradient id="H" x1="-.143%" x2="99.95%" y1="49.986%" y2="49.986%">
            <stop offset="3.514%" stop-color="#455A63"/>
            <stop offset="100%" stop-color="#454954"/>
        </linearGradient>
        <linearGradient id="I" x1="-.036%" x2="99.981%" y1="49.994%" y2="49.994%">
            <stop offset="3.514%" stop-color="#F4F456"/>
            <stop offset="100%" stop-color="#F4A233"/>
        </linearGradient>
        <linearGradient id="J" x1="1.897%" x2="97.778%" y1="47.011%" y2="54.269%">
            <stop offset="3.514%" stop-color="#F4F456"/>
            <stop offset="100%" stop-color="#F4A233"/>
        </linearGradient>
        <linearGradient id="K" x1="-.039%" x2="99.977%" y1="50.019%" y2="50.019%">
            <stop offset="0%" stop-color="#D4EEFF"/>
            <stop offset="100%" stop-color="#FFF"/>
        </linearGradient>
        <linearGradient id="L" x1=".014%" x2="100.107%" y1="50.041%" y2="50.041%">
            <stop offset="0%" stop-color="#FF4077"/>
            <stop offset="100%" stop-color="#FF8677"/>
        </linearGradient>
    </defs>
    <g fill="none" fill-rule="evenodd">
        <g fill="#2774EB">
            <path d="M484.6 221.3c-.1-.4-6.9-42.1-32.2-62.7-10.9-8.8-18.8-21-22.2-34.6-1.6-6.4-2.6-13.1-3-19.7l1-.1c.4 6.6 1.4 13.1 3 19.5 3.4 13.3 11.2 25.4 21.9 34 25.6 20.9 32.5 62.9 32.6 63.4l-1.1.2z"/>
            <path d="M411.5 91c2.1 4.5 16.6 13.7 16.6 13.7s2-17-.2-21.5c-2.4-4.4-7.9-6.1-12.3-3.7-4.1 2.2-5.9 7.2-4.1 11.5zM409.8 122.4c4.3 2.6 21.4 2.5 21.4 2.5s-7.6-15.3-11.9-18c-4.1-2.8-9.8-1.8-12.6 2.4-2.8 4.1-1.8 9.8 2.4 12.6.3.2.5.4.7.5zM430.8 164.9c5 .1 19.7-8.6 19.7-8.6s-14.3-9.4-19.3-9.5c-5-.1-9.2 3.8-9.3 8.9-.1 5.1 3.9 9.1 8.9 9.2zM453.8 193.5c4.9 1 20.9-5.1 20.9-5.1s-12.5-11.7-17.4-12.6c-4.9-1.2-9.8 1.8-11 6.6-1.2 4.9 1.8 9.8 6.6 11 .3 0 .6.1.9.1zM448.8 117.7c-1.7 4.7-15.3 15.1-15.3 15.1s-3.4-16.8-1.7-21.4c1.7-4.7 7-7.1 11.7-5.3 4.7 1.7 7.1 6.9 5.3 11.6zM475.3 151.5c-3.1 3.9-19.1 9.8-19.1 9.8s1.8-17 4.8-21c2.9-4.1 8.6-5 12.7-2.1s5 8.6 2.1 12.7c-.2.2-.3.4-.5.6zM496.6 187.8c-2.4 4.4-17.2 12.9-17.2 12.9s-1.2-17.1 1.2-21.5c2.2-4.5 7.6-6.4 12.1-4.2s6.4 7.6 4.2 12.1c0 .3-.1.5-.3.7z"/>
        </g>
        <g fill="#2774EB">
            <path d="M565.7 115.9c-.4-.1-41-13.1-57.9-41.6-7-11.9-17.8-21.3-30.5-26.7-6.1-2.5-12.4-4.4-18.9-5.8l.2-1c6.5 1.4 12.9 3.3 19 5.8 12.9 5.4 23.9 15 30.9 27.1 16.7 28.1 56.9 41 57.3 41.1l-.1 1.1z"/>
            <path d="M447.8 23.5C452 26.3 459 41.9 459 41.9s-17.1-.6-21.2-3.3c-4-3-4.8-8.7-1.9-12.7 2.8-3.8 7.9-4.8 11.9-2.4zM479.2 26.5c2 4.6-.6 21.5-.6 21.5s-14-9.8-16-14.4c-2.2-4.5-.3-9.9 4.2-12.1 4.5-2.2 9.9-.3 12.1 4.2.1.3.2.5.3.8zM518.1 53.4c-.6 5-11.4 18.2-11.4 18.2s-7.2-15.5-6.6-20.5c.6-5 5.1-8.5 10.1-7.9 5.1.7 8.6 5.3 7.9 10.2zM543 80.4c.2 5-8.1 19.9-8.1 19.9s-9.7-14.1-10-19.1c-.5-5 3.2-9.4 8.2-9.9 5-.5 9.4 3.2 9.9 8.2v.9zM468.8 64.3c4.9-1 17.2-12.9 17.2-12.9s-16.1-5.8-21-4.8c-4.9 1-8 5.9-7 10.8s5.9 8 10.8 6.9zM498.3 95.5C502.7 93 510.8 78 510.8 78s-17.1-.8-21.4 1.7c-4.5 2.3-6.2 7.8-3.9 12.2 2.3 4.5 7.8 6.2 12.2 3.9.2 0 .4-.1.6-.3zM531.1 121.9c4.7-1.7 15.3-15.1 15.3-15.1s-16.7-3.6-21.4-2c-4.8 1.5-7.5 6.6-6 11.3 1.5 4.8 6.6 7.5 11.3 6 .3 0 .6-.1.8-.2z"/>
        </g>
        <path fill="url(#a)" d="M618.4 35.9c5.9 18-.5 34.3-.5 34.3-1-12.7-22.2-35.2-22.2-35.2 5.1 9.8 10.9 33.5 12.9 44.4l19.2-15.6c-1.5-14.3-9.4-27.9-9.4-27.9z"/>
        <path fill="url(#b)" d="M577.8 31.9c11.6 14.3 21.7 54.7 21.7 54.7l7.8-6.4c-6-19.9-29.5-48.3-29.5-48.3z"/>
        <path fill="url(#c)" d="M576.6 48.4c.3 25.8 16.8 41.4 16.8 41.4-6-.9-23.7-22-23.7-22 3 15.2 18.9 26.1 19.6 27l10.2-8.3c-12.3-9.7-22.9-38.1-22.9-38.1z"/>
        <path fill="url(#d)" d="M606.2 38.5c13.8 12.9 31.3 14 31.3 14-11.1-6.2-22.6-35-22.6-35 6.7 8.8 25.8 24 34.8 30.4l-22.2 10.8c-12.3-7.3-21.3-20.2-21.3-20.2z"/>
        <path fill="url(#e)" d="M619.7 0c8.1 16.6 40.5 42.8 40.5 42.8l-9.1 4.4C635.5 33.3 619.7 0 619.7 0z"/>
        <path fill="url(#f)" d="M635.1 5.9c23.3 11.2 30.5 32.7 30.5 32.7 1.7-5.9-10-30.8-10-30.8C668.2 17 671.4 35.9 672 37l-11.8 5.8c-3.8-15.3-25.1-36.9-25.1-36.9z"/>
        <path fill="url(#g)" d="M696.1 4.9S542.4 65.7 525.4 159.8c-10.9 67.9-292.8-2.5-305.8 104.5-9.7 79.8 127 137.6 103 193.3-24 55.7-133.7 128.6 39.7 169.4 72 18.6 232.4-48.8 280.4-47 48 1.8 53.3 20.4 53.3 20.4V4.9h.1z" opacity=".2"/>
        <path fill="url(#h)" d="M696.6 18.6S543.4 80.9 526.4 177.4c-10.9 69.6-291.9-2.6-304.8 107.1-9.7 81.8 126.6 141.1 102.7 198.1-23.9 57.1-133.3 131.8 39.5 173.7 71.8 19 231.7-50 279.5-48.1 47.9 1.9 53.2 20.9 53.2 20.9V18.6h.1z"/>
        <path fill="url(#i)" d="M692.8 138.9s-152.7 58.6-169.5 149.4c-10.8 65.5-290.7-2.4-303.6 100.7-9.6 77 126.2 132.7 102.3 186.4-23.8 53.7-132.8 124 39.4 163.4 71.5 17.9 230.8-47.1 278.5-45.3 47.7 1.8 53 19.7 53 19.7V138.9h-.1z" opacity=".2"/>
        <path fill="url(#j)" d="M696.1 153.3S551.3 208.9 535.2 295c-10.3 62.1-275.9-2.3-288.1 95.6-9.1 73 119.7 125.9 97.1 176.8-22.6 50.9-126 117.7 37.4 155 67.9 17 219-44.7 264.2-43 45.2 1.7 50.3 18.7 50.3 18.7V153.3z"/>
        <path fill="#EAD4CE" d="M341.8 191.2c1.3.4 2.8.2 4.1-.5 1.3-.7 2.3-1.7 3.1-2.8.3-.3.5-.7.9-.9.3-.2.5-.2.8-.3 1.1-.2 2.3-.3 3.5-.2.3.4.2 1-.2 1.3-.6.4-1.4.1-1.9.6-.1.1-.2.3-.3.5-.6.9-1.6 1.5-2.5 2.1-2 1.1-4.3 2.3-6.5 1.6-.2-.1-.4-.1-.5-.3-.3-.4-.2-1.1-.5-1.1M328.6 184.8c1.1.9 2.3 1.6 3.6 2.1.5.2 1.1.4 1.6.7.6.4 1.1.9 1.7 1.2.8.5 1.7.7 2.4 1.3.1.1.2.2.2.4.1.3-.4.6-.7.6-.9.1-1.8-.1-2.7-.4-1.6-.4-3.3-1-4.2-2.3-.1-.2-.2-.4-.4-.6-.4-.5-1.1-.6-1.5-1-.2-.2-.4-.5-.5-.8-.1-.2-.2-.5-.2-.7 0-.2.2-.5.5-.5"/>
        <ellipse cx="101" cy="507" fill="url(#k)" opacity=".3" rx="27" ry="16.2"/>
        <path fill="url(#l)" d="M105.9 510.1s13.1 1.6 14-17.3c.9-18.9-14.5-12.4-11-24.5.9-2.5 5.8-6.5 1.3-11-4.5-4.4-10.2-4.4-9.7-12s-9.5-2-8 3.3.1 14.3-6.7 22.3-.4 14.4 1.3 15.4c1.7 1 4 5.1-.1 8-4.1 3-3.4 12.9 1 14.4 4.6 1.6 17.9 1.4 17.9 1.4z"/>
        <ellipse cx="54.9" cy="611.9" fill="url(#m)" opacity=".3" rx="15.9" ry="8"/>
        <path fill="url(#n)" d="M50 614.8c0-.3-3.2-28.7-19.6-43.6-7.1-6.3-12-14.9-13.8-24.2-.8-4.4-1.3-8.9-1.3-13.4h.7c0 4.5.5 8.9 1.3 13.3 1.8 9.1 6.7 17.6 13.6 23.8 16.6 15.1 19.8 43.7 19.8 44l-.7.1z"/>
        <path fill="url(#o)" d="M5.1 524c1.3 3.1 10.7 9.9 10.7 9.9s1.9-11.4.6-14.6c-1.4-3.1-5.1-4.4-8.2-2.9-2.8 1.4-4.1 4.7-3.1 7.6z"/>
        <path fill="url(#p)" d="M2.9 545.3c2.8 1.9 14.4 2.5 14.4 2.5s-4.6-10.6-7.4-12.6c-2.7-2.1-6.6-1.5-8.6 1.2-2.1 2.7-1.5 6.6 1.2 8.6.1.1.2.2.4.3z"/>
        <path fill="url(#q)" d="M15.6 574.8c3.4.3 13.6-5.1 13.6-5.1s-9.3-6.9-12.7-7.1c-3.4-.3-6.3 2.3-6.6 5.7-.3 3.3 2.3 6.2 5.7 6.5z"/>
        <path fill="url(#r)" d="M30.1 594.9c3.3.8 14.3-2.7 14.3-2.7s-8-8.3-11.3-9.2c-3.2-1-6.7.8-7.7 4.1-1 3.2.8 6.7 4.1 7.7.2 0 .4.1.6.1z"/>
        <path fill="url(#s)" d="M29.4 543.4c-1.3 3.1-10.9 9.7-10.9 9.7s-1.7-11.5-.4-14.6c1.3-3.1 5-4.5 8.1-3.2 3.1 1.4 4.6 5 3.2 8.1z"/>
        <path fill="url(#t)" d="M46.2 567.2c-2.2 2.6-13.3 6-13.3 6s1.8-11.4 4-14c2.1-2.6 6-3.1 8.6-1 2.6 2.1 3.1 6 1 8.6-.1.2-.2.3-.3.4z"/>
        <path fill="url(#u)" d="M59.3 592.6c-1.8 2.9-12.1 8.1-12.1 8.1s-.2-11.6 1.6-14.5c1.6-3 5.4-4.1 8.3-2.4 3 1.6 4.1 5.4 2.4 8.3 0 .2-.1.4-.2.5z"/>
        <path fill="url(#v)" d="M65.1 610.9c0-.1-1.4-14 4.9-22.8 2.7-3.6 4.1-8.1 4-12.6 0-2.1-.3-4.3-.7-6.4l.3-.1c.4 2.1.7 4.3.7 6.5.1 4.6-1.4 9.1-4.1 12.8-6.2 8.7-4.9 22.4-4.8 22.6h-.3z"/>
        <path fill="url(#w)" d="M77.4 563.4c-.3 1.6-4.1 5.7-4.1 5.7s-2.1-5.2-1.8-6.8c.4-1.6 2-2.6 3.6-2.2 1.6.4 2.5 1.8 2.3 3.3z"/>
        <path fill="url(#x)" d="M80.6 573.2c-1.1 1.2-6.5 2.6-6.5 2.6s1.1-5.5 2.2-6.7c1.1-1.2 2.9-1.4 4.2-.3 1.3 1.1 1.4 2.9.3 4.2 0 .1-.1.2-.2.2z"/>
        <path fill="url(#y)" d="M77.6 588.4c-1.6.5-7-1-7-1s3.7-4.2 5.3-4.6c1.6-.5 3.2.4 3.7 2 .5 1.5-.4 3.2-2 3.6z"/>
        <path fill="url(#z)" d="M72.8 599.4c-1.5.7-7 .2-7 .2s3-4.8 4.4-5.5c1.4-.8 3.2-.3 4 1.2.8 1.4.3 3.2-1.2 4 0 0-.1.1-.2.1z"/>
        <path fill="url(#A)" d="M67.9 575.1c1 1.3 6.1 3.5 6.1 3.5s-.3-5.6-1.3-6.9c-1-1.3-2.8-1.6-4.1-.7-1.3.9-1.6 2.7-.7 4.1z"/>
        <path fill="url(#B)" d="M62.4 588c1.3 1 6.9 1.5 6.9 1.5s-2-5.2-3.3-6.2c-1.3-1-3.1-.8-4.2.4-1 1.3-.8 3.1.4 4.2.1 0 .2 0 .2.1z"/>
        <path fill="url(#C)" d="M58.8 601.3c1.1 1.2 6.5 2.6 6.5 2.6s-1.1-5.5-2.2-6.7c-1.1-1.2-2.9-1.4-4.2-.3-1.3 1.1-1.4 2.9-.3 4.2l.2.2z"/>
        <ellipse cx="146" cy="708" fill="url(#D)" opacity=".3" rx="36" ry="21.6"/>
        <path fill="url(#E)" d="M142.1 702s-1.9-15.7 2.9-22.4c4.8-6.7 12.5-1 17.3-9.6 4.8-8.6-1.9-11.5 4.8-19.2 6.7-7.7 11.5-4.8 12.5-14.4 1-9.6 10.6-10.6 14.4-5.8 3.8 4.8 1.9 14.4-2.9 19.2-4.8 4.8-3.8 4.8-2.9 14.4 1 9.6-1 20.2-10.6 23-9.6 2.8-1 12.5-8.6 17.3-7.7 4.9-19.2 12.2-26.9-2.5z"/>
        <path fill="url(#F)" d="M127.9 589.2c-3.3-2.7-14 9-7.5 19.5s7.5 17.5 3 24.4c-4.5 7-7.5 22.9 0 31.4s9 20.5 4.5 27.9c-4.5 7.5-.5 19.5 12 21s31.9-10 28.9-23.9c-3-14-21-14-21-24.9 0-11 8-6 6-21.5s-14.5-18.5-15-27.9c-.5-9.4-.9-18-10.9-26z"/>
        <circle cx="297.3" cy="137.7" r="7.1" fill="#E2E2E2" opacity=".4"/>
        <circle cx="272.6" cy="163" r="7.1" fill="#E2E2E2" opacity=".4"/>
        <circle cx="297.3" cy="163" r="7.1" fill="#E2E2E2" opacity=".4"/>
        <g fill="#E2E2E2" opacity=".5" transform="translate(164 105)">
            <circle cx="8" cy="7.5" r="7.1" opacity=".4"/>
            <circle cx="32.6" cy="7.5" r="7.1" opacity=".4"/>
            <circle cx="8" cy="32.7" r="7.1" opacity=".4"/>
            <circle cx="32.6" cy="32.7" r="7.1" opacity=".4"/>
            <circle cx="8" cy="58" r="7.1" opacity=".4"/>
            <circle cx="32.6" cy="58" r="7.1" opacity=".4"/>
            <circle cx="7.5" cy="82.2" r="7.1" opacity=".4"/>
            <circle cx="32.1" cy="82.2" r="7.1" opacity=".4"/>
            <circle cx="7.5" cy="107.4" r="7.1" opacity=".4"/>
            <circle cx="32.1" cy="107.4" r="7.1" opacity=".4"/>
            <circle cx="7.5" cy="132.6" r="7.1" opacity=".4"/>
            <circle cx="32.1" cy="132.6" r="7.1" opacity=".4"/>
        </g>
        <g fill="#E2E2E2" opacity=".5" transform="translate(213 105)">
            <circle cx="8.3" cy="7.5" r="7.1" opacity=".4"/>
            <circle cx="8.3" cy="32.7" r="7.1" opacity=".4"/>
            <circle cx="8.3" cy="58" r="7.1" opacity=".4"/>
            <circle cx="35" cy="7.5" r="7.1" opacity=".4"/>
            <circle cx="59.6" cy="7.5" r="7.1" opacity=".4"/>
            <circle cx="84.3" cy="7.5" r="7.1" opacity=".4"/>
            <circle cx="35" cy="32.7" r="7.1" opacity=".4"/>
            <circle cx="59.6" cy="32.7" r="7.1" opacity=".4"/>
            <circle cx="35" cy="58" r="7.1" opacity=".4"/>
            <circle cx="7.8" cy="82.2" r="7.1" opacity=".4"/>
            <circle cx="7.8" cy="107.4" r="7.1" opacity=".4"/>
            <circle cx="7.8" cy="132.6" r="7.1" opacity=".4"/>
        </g>
        <circle cx="247.5" cy="187.2" r="7.1" fill="#E2E2E2" opacity=".4"/>
        <circle cx="272.1" cy="187.2" r="7.1" fill="#E2E2E2" opacity=".4"/>
        <circle cx="296.8" cy="187.2" r="7.1" fill="#E2E2E2" opacity=".4"/>
        <circle cx="247.5" cy="212.4" r="7.1" fill="#E2E2E2" opacity=".4"/>
        <circle cx="272.1" cy="212.4" r="7.1" fill="#E2E2E2" opacity=".4"/>
        <circle cx="296.8" cy="212.4" r="7.1" fill="#E2E2E2" opacity=".4"/>
        <circle cx="247.5" cy="237.6" r="7.1" fill="#E2E2E2" opacity=".4"/>
        <circle cx="272.1" cy="237.6" r="7.1" fill="#E2E2E2" opacity=".4"/>
        <circle cx="296.8" cy="237.6" r="7.1" fill="#E2E2E2" opacity=".4"/>
        <ellipse cx="313.999" cy="596.335" fill="#FF4077" opacity=".3" rx="27.1" ry="114.499" transform="rotate(-45 313.999 596.335)"/>
        <path fill="url(#G)" d="M319.3 329.7c.3 27.5.5 54.9.8 82.4 0 3.3.1 6.6-.5 9.9-.6 3.4-1.8 6.6-3 9.8-7.2 19.2-15 39.3-30.5 52.7-1.4 1.2-2.9 2.4-3.6 4.2-1 2.8.6 5.8 2.6 8 3.6 4.3 8.6 7.4 13.9 9 7.9-16.8 22-29.7 36.7-41 1.1-.9 2.3-1.8 3.2-2.9 1.5-2 2-4.5 2.6-6.9 4.5-18.9 14.2-36.1 18.9-54.9 3.8-15.3 4-31.3 4.3-47.1l.3-16.4c0-1.4-.1-3.1-1.4-3.8-.8-.4-1.7-.2-2.5 0-12.9 2.6-6.5-12.5-18.3-18.2-.7-.3-21.7 12.7-22.4 13-1 .4-1.1 1.7-1.1 2.7 0 2.4-.1 4.8-.1 7.1"/>
        <path fill="#738B95" d="M287.1 482.2l21.6 15-10.6 10.1-20-13.9z"/>
        <path d="M282.9 500.3l.5-.5c-.2.2-.4.3-.5.5z"/>
        <path fill="url(#H)" d="M304.2 530.1c1.3 1.7 4.2.6 6.3-.1 3.9-1.3 13-2 13.4-2.6.4-.6.6-3 .6-3.7-.1-25.9-.3-51.8-.4-77.7-.1-16.2-.2-32.5-1.9-48.6-.8-7-1.8-13.9-2.3-20.9-1.3-20.4 2.6-41.4-3.1-61-.3-.9-.6-1.8-1.3-2.4-.7-.5-1.5-.6-2.3-.7-10.6-1.4-21.3-2.7-31.9-4.1-2.8-.4-6.4-.3-7.6 2.3-.6 1.3-.3 2.8 0 4.1 7.2 35.9 14.2 71.9 18.2 108.3 4 35.6 4.5 72 12.5 106.9"/>
        <path fill="url(#I)" d="M310.5 115.9s-32.9-9.2-40.2 18.8c-7.4 28 2.5 20.3-20.3 38.5-22.7 18.2-30.7 31.4-22.7 55.1.3 4.6-36.2 17.3-36.5 36.1-.3 18.8 27 60 59.9 45.6 5.9-1.6 31.6-2.4 49.2-23.3 17.6-20.9 49.5 5 67.7-11.8 18.1-16.8 15.3-27.7 17.2-35.1 1.9-7.4 24.9-3.3 31.1-23.8 6.2-20.5-7.4-34.3-16-34.9-8.6-.6-61.8 2.3-63.1-5.7-1.2-8 5.3-31.8-.8-43.9-6.2-12.2-21.1-18.3-25.5-15.6z"/>
        <path fill="#FDE4DB" d="M316.2 172s-2.9 10.9 0 14.5c2.9 3.6-12 3.7-17 2.3-5-1.4-5.1-3.3-3.1-4.1 2-.8 3.8-10.4 5.6-12.7 1.9-2.4 14.5 0 14.5 0z"/>
        <path fill="#FDE4DB" d="M314.3 123.8c.3.7 11.9 5.4 11 26.3.1 15.8-8.1 20.9-11.3 22.9-7.9 5-10.4.2-10.9-.5s-6.8-1.9-12.9-17.9c-5.1-13.5 3.5-28.2 10.8-29.8 7.4-1.7 13.3-1 13.3-1z"/>
        <path fill="url(#J)" d="M322.7 125.5s2.6-2-1.8 8.6-16.2 27.6-41.7 32.9c-25.5 5.3.2-36.3 4.1-38.6 19.9-11.4 37.4-4 39.4-2.9z"/>
        <path fill="#FDE4DB" d="M295 186.2l-.9.1-19 1.6s25.2 24 38.2 27.1c13 3.1 32.1-8.9 33-14.4.9-5.5-29.7-13.2-29.7-13.2"/>
        <path fill="url(#K)" d="M346.8 199.6c-2 5.1-7.4 8.2-12.7 8.9-5.4.7-10.8-.6-16-2.1-13-3.8-25.6-9.1-37.5-15.7-4-2.2-8.2-4.7-12.8-4.5-6.9.3-11.9 6.4-15.9 11.9-5.3 7.4-10.7 14.9-14.4 23.2-3.9 8.6-5.9 17.9-7.7 27.2-2.2 11.5-4 23.2-3.4 34.9.6 11.7 3.7 23.5 10.6 33 2.2 3 4.8 5.8 6.6 9.1 2.3 4 3.4 8.5 5.7 12.4 5.2 9 15.4 13.6 25 17.7.6.3 1.2.5 1.9.3.6-.2 1-.7 1.4-1.2 6.6-8.8 12.9-17.8 19.1-27-10-6.6-15-18.6-23.8-26.9-6-5.7-14.3-10.3-16.3-18.4-1.7-7 1.9-14.1 4.8-20.8 4.4-10.5 6.8-21.9 7-33.3-1 12.1-2.8 24.1-5.3 36-.9 4.5-2 9-1.7 13.6.4 5.7 3 11.1 5.5 16.2 2.1 4.3 4.433 8.869 8.533 11.369 3.8 2.3 8.822 1.925 12.222 4.725 3.7 3 4.345 8.806 7.345 12.506.9 1.2 2.3 2.3 3.8 2.1 1.6-.2 2.6-1.8 3.9-2.8 3.8-2.9 9.2-.2 12.8 2.7 4.2 3.5 8.1 7.4 11.5 11.7 1.4 1.8 3.3 3.9 5.5 3.5 1.7-.3 2.7-2 3.5-3.5 2.4-4.4 1.895-7.2 4.295-11.6 5.9 7.9 14.705 14.2 20.605 22.1 2.9 3.9 6.3 8.1 11 9.2 1.9.4 4.1.2 5.7-.9 1-.7 1.8-1.7 2.5-2.6 4.5-5.9 8.3-12.9 8.3-20.3-.1-6.3-2.9-12.3-5.7-17.9-3.4-6.9-6.8-13.7-10.2-20.6-1-2.1-2.1-4.2-2.5-6.4-1.1-5.4 1.1-10.9 1.8-16.4.9-7.9-1.4-15.9-3.8-23.5-3.8-12.5-7.7-24.9-11.5-37.4-1.5-4.9-4.6-11-9.8-10.3"/>
        <path fill="#000" d="M389.5 593.3s18.9 23.1 12.7 62.4c-6.2 39.3-45.8 20.5-56.6-25.8-10.8-46.3 7.7-48.8 14.5-50.5 6.7-1.8 21.7 2.9 29.4 13.9z"/>
        <path fill="#FFF" d="M377.5 605.6s12.2 14.9 8.2 40.3-29.6 13.3-36.6-16.7 5-31.5 9.4-32.7c4.4-1.2 14 1.9 19 9.1z"/>
        <path fill="#000" d="M270.9 521.6s6.6 10.8 1.6 27c-4.9 16.1-20.5 5.9-22.3-14.2-1.8-20.1 6.1-20.1 9.1-20.4 3-.4 9 2.5 11.6 7.6z"/>
        <path fill="#FFF" d="M265.1 526s4.2 7 1 17.5c-3.2 10.4-13.2 3.8-14.4-9.2-1.2-13 4-13 5.9-13.2 2-.2 5.8 1.6 7.5 4.9z"/>
        <path fill="#544D47" d="M351.6 575.1s.6-5.1 1.9-8.5c1.4-3.5 0-9.6 0-9.6s5.5 2.9 18.9 0c0 0 0 3.6.8 5.3.8 1.7 14.7 20.6 14.7 20.6l-36.3-7.8z"/>
        <path fill="#544D47" d="M392.3 588.7s-10.6-18.5-29.7-17c-19 1.5-23.1 19.4-23 35.2 0 0-1 1.8 3.3 2.1 0 0-3.4-25.7 15.4-28.8 5 0 12.3 1.7 16.2 11.7 1.1 2.8 19.2 4.2 17.8-3.2zM349.1 514.2s3.4 41.7 3.7 41.8c.3.1 3.9 3.9 19.9 0l-5-43.1c.1-.1-11.3 1.9-18.6 1.3zM346.8 486.3v5.1s-4 1.4-4.5 2.6c-.6 1.2-1.1 7 3.6 4.6 0 0-.7 3.4-.1 3.4s2.3.1 2.3.6-.3 9.3 1.1 9.7c1.5.5 17.8-.8 18-1.8.2-1-2.5-26.3-2.5-26.3l-17.9 2.1z"/>
        <path fill="#4B403A" d="M343.1 482.3v3.6l22.2-2.6s0-3.6-.8-3.6c-.7.1-21.4 2.6-21.4 2.6z"/>
        <path fill="#000" stroke="#4B403A" d="M348.2 579s-6.2 19.1-18.9 19.8c-12.7.7-54.9-37.9-70.4-56.7-1-1.8-2.6-7.5 4.6-11.4 7.2-3.9 84.7 48.3 84.7 48.3z"/>
        <path fill="#4B403A" d="M265.9 529c-4.6 3-8.7 6.3-1.3 13.2 13 12.1 45.4 42.8 60.7 44.6 19.3 2.3 26.8-4.2 21.2-16.3-5.6-12.1-69.7-48.8-80.4-41.7-.1.1-.2.1-.2.2zM328.6 289.8l20.5 191.8 11.9-1.8-23.5-192.7zM282 247s-7.7 1.1-5 13.1c0 0 46.2 12.9 47.6 12.2 1.4-.7 4.3-2 2.9-14.5L282 247z"/>
        <path fill="#000" d="M350.3 528.2l-27.1 45.6s6.6 9.1 15.2 6.1l14.5-24-2.6-27.7z"/>
        <path fill="#4B403A" fill-rule="nonzero" d="M334.9 581c-7 0-12.1-6.8-12.1-6.9l-.2-.3 28.1-47.2 2.7 29.4-.1.1-14.6 24.2-.2.1c-1.2.5-2.4.6-3.6.6zm-11.1-7.2c1.1 1.4 7 8.1 14.2 5.7l14.3-23.7-2.4-26-26.1 44z"/>
        <path fill="#4B403A" d="M254.1 539.7l-4.3-3.6c-.7-.6-1.2-2.2-.9-3.7.2-1.4 1-2.1 1.7-1.5l4.3 3.6c.7.6 1.2 2.2.9 3.7-.2 1.4-1 2.1-1.7 1.5z"/>
        <path fill="#FF6050" d="M253.4 538.1l-2.8-2.3c-.5-.4-.7-1.4-.6-2.4.1-.9.6-1.3 1.1-1l2.8 2.3c.5.4.7 1.4.6 2.4-.1 1-.6 1.4-1.1 1z"/>
        <path fill="#544D47" d="M361.3 578s-4.1 31.8 0 48.8c1.8 5.1-8.1 1.7-8.4-5.1-.3-6.8-1.3-37.3-1.2-44.7 0-7.4 9.6 1 9.6 1z"/>
        <path fill="#FF6050" d="M354.6 621.6c-1.4-.2-2.6-1.7-2.6-3.3v-23.4c0-1.6 1.2-2.6 2.6-2.4 1.4.2 2.6 1.7 2.6 3.3v23.4c0 1.6-1.1 2.7-2.6 2.4z"/>
        <path fill="#FFF" d="M362.7 265.9c.1-.4 5 .9 5.4-1.4.5-2.5 2.4-5.9-5.3-7.2-7.7-1.4-7.9 2.5-7.9 2.5l-.1-.3c-.5 2.1-.3 6 7.9 6.4z"/>
        <path fill="#4B403A" d="M400.9 279.6c-.7-.9-32.2-10.4-35.3-9.5 0 0-1.7-3.2-2.8-4.1-.1-.1-.1-.2-.1-.2-8.1-.3-8.3-4.3-7.8-6.4l-.6-2.5-9.4-2.4-7.3 10.2-3.9-.7.7-4.3h-6.6l-3.1 12.7s.5 12.2 3.3 16.3l9.6-1.6 10-12s49.4 14 50.7 13.6c1.3-.4 3.3-8.2 2.6-9.1z"/>
        <path fill="#A63F42" d="M336.1 321c-.4-1.4-9.3-34.4 3.6-46.8 5.3-5.1 13.3-5.9 23.8-2.6l-1.2 3.8c-9-2.9-15.6-2.3-19.8 1.7-5.7 5.5-6.1 16.7-5.5 25.1.7 9.4 3 17.6 3 17.7l-3.9 1.1zM339.5 551.9s-4.4 5.2-4.4 7.2 3.2 1.8 4.4 0c1.2-1.8 4.7-4.8 3.6-7.2-1.1-2.4-3.6 0-3.6 0z"/>
        <path fill="#544D47" d="M356.6 600l-4-.4c0-.2 1.9-23.4-13-27.6-8.8-2.5-14.6-7.6-15.8-14.1-.9-5 1.2-10.1 5.6-13.4 3.1-2.3 5.4-2 6.9-1.3 4.7 2.1 4.6 8.2 4.7 9.8l-2.7 3.3c-.3-3.1-1.8-8.7-3.7-9.5-.7-.3-1.7 0-2.9.9-3.2 2.4-4.7 5.9-4 9.4.9 4.9 5.6 8.9 12.9 10.9 7.6 2.2 12.7 8.5 14.7 18.4 1.5 7.2 1.3 13.3 1.3 13.6z"/>
        <path fill="#FFE2C9" d="M281.1 500.4l2.1-3.5 11.3 7.8-.1 5-14.3-6.5z"/>
        <path fill="#F7F7F7" d="M274.5 526.2c1.2.6 2.7.8 4 1.2 1.2.4 2.3 1.1 3.3 1.7 1.8 1.1 3.7 2.3 5.5 3.4 1.3.8 2.6 1.6 3.6 2.8.6.8 1.1 1.7 1.9 2.3.8.7 1.9 1 2.9 1.5 1.2.7 2.1 1.8 3.2 2.6 3.4 2.9 8.2 3.5 12.6 3.7 2.9.1 5.9.1 8.4-1.2 2.2-1.1 4.1-4.5 4.2-7.2-.6-.7-1.2-1.4-1.7-2.2-1.3-2.1-1.8-4.7-3.3-6.7-.3-.4-.7-.9-1.1-1.2-1.6-1.5-3.6-2.5-5.8-2.9-1.2-.2-2.4-.2-3.4-.8-1.1-.6-1.8-1.6-2.4-2.6-1.4-2-2.7-4-4.1-6-.8-1.1-1.5-2.2-2.5-3.1-1.8-1.6-4.3-2.6-5-4.8-.1-.4-.2-.8-.5-1-.3-.3-.8-.2-1.2-.1-3.4.5-6.9-.8-9.1-3.4-.6-.7-1.1-1.6-2-1.9-.5-.2-1-.1-1.4.2l-.5.5c-.1.2-.1.3-.1.5 0-.2 0-.4.1-.5-4 4.3-7.5 9-10.5 14.1-.7 1.2-1.4 2.5-2.2 3.7 2.8 1.9 4.1 5.8 7.1 7.4z"/>
        <path fill="#CEC3C1" d="M327.1 540.1c-.9-1.1-1.9-2-2.9-3.1 0 2.7-2 6.1-4.2 7.2-2.6 1.3-5.6 1.3-8.4 1.2-4.5-.2-9.2-.8-12.6-3.7-1.1-.9-2-2-3.2-2.6-.9-.5-2-.8-2.9-1.5-.8-.6-1.3-1.6-1.9-2.3-1-1.2-2.3-2-3.6-2.8-1.8-1.1-3.7-2.3-5.5-3.4-1.1-.7-2.1-1.3-3.3-1.7-1.3-.5-2.8-.6-4-1.2-3-1.5-4.3-5.5-7-7.4-.3.5-.7 1-1 1.5-1.3 1.7-2.8 3.4-2.8 5.6 0 2.4 2.1 4.3 4.1 5.7 2.6 1.8 5.3 3.5 8.1 4.9 3.4 1.8 7.5 3.4 11.1 1.8.7-.3 1.7-.7 2.2 0 .2.3.2.6.2 1 0 2.5 1.9 4.6 4 6.2 2.2 1.7 4.6 3 7.2 3.9 2 .7 4.1 1.2 6.2 1.6 5.8 1.1 12.1 1.6 17.6-.5 1.9-.7 3.9-1.9 4.6-3.9.6-2.2-.5-4.7-2-6.5z"/>
        <path fill="#FFE2C9" d="M304.3 529.4c.1 1.5-.3 3.1.3 4.6.6 1.5 2.1 2.5 3.7 2.9 1.6.4 3.3.2 4.9 0l3.3-.3c1-.1 2-.2 2.9-.6.7-.3 1.3-.7 1.8-1.1.8-.5 1.5-1 2.1-1.8.9-1.3.8-3 .8-4.5 0-.7-.1-1.6-.7-2-.3-.2-.7-.3-1.1-.4-4.3-.6-8.5 1.9-12.9 1.8-1 0-1.9-.2-2.8.2-1.2.4-1.9 1.5-2.5 2.6"/>
        <path fill="#CEC3C1" d="M338.1 570.5c.1 2.4.2 4.8.2 7.2 0 1 0 2-.6 2.7-.6.8-1.7 1-2.6 1.1-4.6.8-9.3 1.2-14 1.4-2.4.1-4.8.1-7-.8-2.2-.8-4.1-2.4-6.3-3.1-1-.3-2-.5-2.9-1-1.3-.8-2-2.2-2.5-3.7-1.1-3.3-1.4-6.8-.9-10.2 0-.2.1-.4.3-.4.1 0 .3 0 .4.1 9.5 5.3 20.7 6.8 31.5 8.1 1.4.2 2.8.3 4.2.4.1.5.3 1 .4 1.6"/>
        <path fill="#FFF" d="M303.5 537c-1.5 6.3-2.3 12.9-2.2 19.4 0 4.7.5 9.6 3.2 13.4 3 4.3 8.1 6.5 13.2 7.7 1.1.3 2.1.5 3.2.4 1.4-.1 2.7-.7 4-1 2.5-.6 5.3-.4 7.7.6.8.3 1.6.7 2.4.6.8-.1 1.4-.8 1.8-1.4 2.5-3.7 1.2-8.7-.2-13-3.3-10.1-6.6-20.3-10.8-30.1-.2-.4-.4-.9-.7-1.3-.8-.8-2-.7-3-.2-1 .5-1.7 1.3-2.6 1.9-3.7 2.6-8.8 1.7-13.1.4-.8-.2-1.6-.5-2.3-.2-1.5.6-1.4 2.8-.8 4.3"/>
        <path fill="url(#L)" d="M189.1 123.6c1.6 8.2.8 25.1-11.5 25.3-12.3.2-20.6-27.1-29.6-22.5-9 4.6-13.2-15.7-7.4-24.1 5.8-8.3 24.7 2.2 29.6-7.6 4.9-9.8 14.4-5.4 19.5 6 5.1 11.3 0 18.5 0 18.5"/>
        <path fill="#738B95" d="M300.3 517.7l25.8-5.2v14.6l-23.8 4.9z"/>
    </g>
</svg>
