<svg xmlns="http://www.w3.org/2000/svg" width="639" height="475" viewBox="0 0 639 475">
    <defs>
        <linearGradient id="a" x1="-.003%" x2="100.004%" y1="50.009%" y2="50.009%">
            <stop offset="0%" stop-color="#FF3C75"/>
            <stop offset="100%" stop-color="#FF8474"/>
        </linearGradient>
        <linearGradient id="b" x1="17.042%" x2="85.363%" y1="43.164%" y2="57.755%">
            <stop offset="3.514%" stop-color="#F3F545"/>
            <stop offset="100%" stop-color="#F5A21E"/>
        </linearGradient>
    </defs>
    <g fill="none" fill-rule="evenodd">
        <path fill="url(#a)" d="M131.8 112.4c-4.9 2-17.9 25.4-17 35 3.2 33.1 14.4 52.9 0 82.9-7 14.5-18.6 26.2-27.9 39.4-9.3 13.2-16.3 29.7-12 45.3 5.3 19 24.9 29.5 38.1 44.1 8.7 9.6 14.7 21.2 22.8 31.2 8.1 10 19.2 18.9 32.1 19.5 18.6.9 33.7-15.2 51.9-18.9 18.6-3.8 37.4 5.9 52.5 17.5 15.1 11.6 28.9 25.6 46.5 32.8 19.5 8 41.4 6.8 61.9 11.6 18.6 4.4 35.8 13.7 54.3 18.6 18.5 4.9 40.2 4.7 54.5-8 18.7-16.6 17.2-46.1 29.2-68 11.1-20.4 32.8-32.5 47.4-50.5 26.3-32.4 25.4-82 3.1-117.2-22.3-35.3-62.8-56.6-104.1-62.2-18.6-2.5-37.8-2.2-55.8-7.9-48-15.2-76.5-69.8-125.5-81.1-31.1-7.2-61.4 5.3-87.9 20.6-23 13.4-35 3.3-64.1 15.3z"/>
        <path fill="#3F3C57" d="M63.2 343.3c182.5-3.5 365-6.9 547.5-10.4 8-.2 16.7-.1 22.7 4.2 10.7 7.5 4.1 22.8-8 28.8-12.1 5.9-27.1 5.9-41 8-19.5 2.9-37.8 10-57.3 13-28 4.3-56.8-.1-85.2 1.6-16.7 1-33.4 4.2-50.1 2.6-12.4-1.1-24.3-4.8-36.7-6.2-14.2-1.5-28.6.1-43 .4-37.4.8-74.2-7.1-111.5-9-40.1-2-80.8 3-118.3 14.7-21 6.5-44.5 15.2-65 7.6-3.1-1.2-6-2.7-8.3-4.7-2.9-2.6-4.6-5.9-5.4-9.3C.7 372 11.1 359.4 24.8 353c13.7-6.4 30-7.7 45.8-8.2"/>
        <path fill="#3F3C57" d="M440.3 0h132.1c9.5 0 17.2 7.7 17.2 17.2v304c0 9.5-7.7 17.2-17.2 17.2H440.3c-9.5 0-17.2-7.7-17.2-17.2v-304C423 7.7 430.8 0 440.3 0z"/>
        <path fill="#36324B" d="M579.3 22v294.4c0 7.3-5.9 13.2-13.2 13.2H446.6c-7.3 0-13.2-5.9-13.2-13.2V22c0-7.3 5.9-13.2 13.2-13.2h17.9v2.3c0 6 4.9 10.9 10.9 10.9h60.8c6 0 10.9-4.9 10.9-10.9V8.8h19.1c7.2 0 13.1 5.9 13.1 13.2z"/>
        <path fill="#FFF" d="M302.6 127.5s16.8 10.3 17.6 10.3c.8 0 3.5.5 3-3.2.1-1.7-17.9-10.1-18.7-10.1-.9 0-1.9.5-2.2 1.5-.3.9.3 1.5.3 1.5z"/>
        <path fill="#FFF" d="M314.8 133.4s-1.8 158.1-2.9 158.1c-1.1 0-5 1-5-.4s2.9-159.7 2.9-159.7l5 2z"/>
        <path fill="#2070EE" d="M304.9 222.4s9.5-.9 9.5.2-3.3 105.3-3.3 105.3l-8.2-.2 2-105.3zM265.2 323.3H102.9c-6.4 0-11.5 4.9-11.5 11.1 0 6.2 5.2 11.1 11.5 11.1h162.3c6.4 0 11.5-4.9 11.5-11.1 0-6.2-5.1-11.1-11.5-11.1z"/>
        <path fill="#2070EE" d="M301.8 285.2l-36.2 41.6c-1.4 1.6-.5 4.8 2.1 7s5.8 2.7 7.2 1.1l36.2-41.6c1.4-1.6.5-4.8-2.1-7s-5.8-2.7-7.2-1.1zM288.4 345.2l6.7.6s2.5-14.7 14.8-16.2c12.3-1.4 18.9 10.5 18.9 10.5l6-1.2s-2.9-14.5-21.5-15.5-24.7 19.4-24.9 21.8z"/>
        <path fill="#FFF" fill-rule="nonzero" d="M314.3 329.9c-9.7-.9-18.2 6.2-19.1 15.9-.9 9.7 6.2 18.2 15.9 19.1 9.7.9 18.2-6.2 19.1-15.9.9-9.7-6.2-18.2-15.9-19.1zm8.8 18.4c-.5 5.7-5.6 10-11.4 9.5-5.7-.5-10-5.6-9.5-11.4.5-5.7 5.6-10 11.4-9.5 5.8.6 10 5.7 9.5 11.4z"/>
        <path fill="#000" fill-rule="nonzero" d="M74.3 332.5c-8.2-.8-15.5 5.3-16.3 13.6-.8 8.2 5.3 15.5 13.6 16.3 8.2.8 15.5-5.3 16.3-13.6.7-8.3-5.3-15.6-13.6-16.3zm7.5 15.7c-.4 4.9-4.8 8.5-9.7 8.1-4.9-.4-8.5-4.8-8.1-9.7.4-4.9 4.8-8.5 9.7-8.1 5 .4 8.6 4.8 8.1 9.7z"/>
        <path fill="#2070EE" d="M97.3 345.2l-6.7.6s-2.5-14.7-14.8-16.2c-12.3-1.4-18.9 10.5-18.9 10.5l-6-1.2s2.9-14.5 21.5-15.5 24.7 19.4 24.9 21.8z"/>
        <path fill="#FFF" fill-rule="nonzero" d="M74.6 329.9c-9.7-.9-18.2 6.2-19.1 15.9-.9 9.7 6.2 18.2 15.9 19.1 9.7.9 18.2-6.2 19.1-15.9.8-9.7-6.3-18.2-15.9-19.1zm8.8 18.4c-.5 5.7-5.6 10-11.4 9.5-5.7-.5-10-5.6-9.5-11.4.5-5.7 5.6-10 11.4-9.5 5.8.6 10 5.7 9.5 11.4z"/>
        <path fill="#000" fill-rule="nonzero" d="M313.4 332.5c-8.2-.8-15.5 5.3-16.3 13.6-.8 8.2 5.3 15.5 13.6 16.3 8.2.8 15.5-5.3 16.3-13.6.7-8.3-5.4-15.6-13.6-16.3zm7.5 15.7c-.4 4.9-4.8 8.5-9.7 8.1-4.9-.4-8.5-4.8-8.1-9.7.4-4.9 4.8-8.5 9.7-8.1 5 .4 8.6 4.8 8.1 9.7z"/>
        <path fill="#FFF" fill-rule="nonzero" d="M313.6 329.9c-9.7-.9-18.2 6.2-19.1 15.9-.9 9.7 6.2 18.2 15.9 19.1 9.7.9 18.2-6.2 19.1-15.9.9-9.7-6.2-18.2-15.9-19.1zm8.8 18.4c-.5 5.7-5.6 10-11.4 9.5-5.7-.5-10-5.6-9.5-11.4.5-5.7 5.6-10 11.4-9.5 5.8.6 10.1 5.7 9.5 11.4z"/>
        <path fill="#1D69D5" d="M137.5 353.2h-58c-3.6 0-6.5-2.9-6.5-6.5s2.9-6.5 6.5-6.5h58.1c3.6 0 6.5 2.9 6.5 6.5s-3 6.5-6.6 6.5z"/>
        <path fill="#FFF" d="M104.6 349.8H88c-1.7 0-3.1-1.4-3.1-3.1 0-1.7 1.4-3.1 3.1-3.1h16.6c1.7 0 3.1 1.4 3.1 3.1 0 1.7-1.4 3.1-3.1 3.1z"/>
        <path fill="#26BB85" d="M12.6 285.8S-1.2 277.9.1 256.9c0 0 15.1 9.9 12.5 28.9zM42.7 269s-3.9-24 22.4-42.6c0 0 2.8 27.4-22.4 42.6z"/>
        <path fill="#FDE3D9" d="M304.5 126.5s1.4-1.7 3-1.2c1.6.4 3.6 1.4 3.3 2.2-.3.8-3.9 1-4 2.3 0 1.3-2.3-3.3-2.3-3.3z"/>
        <path fill="#FDE3D9" d="M307.5 130.1s1.2-2.3 3.7-2.2c2.5.1 4.4 2.1 2.7 2.8-1.7.7-3 2.9-3 2.9l-3.4-3.5z"/>
        <path fill="#000" d="M46.5 295c-2.7 1.6-5.6 3.5-6.4 6.5-.6 2-.1 4.2.9 6 1 1.8 2.4 3.4 3.9 4.8 2.4 2.3 5 4.4 7.8 6.3 1.8 1.2 4.2 2.4 6.1 1.4.9-.5-.5-.7 0-1.5.5-.7-5.1-7-3.1-13.7.3-.8-5.3-8.4-8.8-10.1M209.4 315.3c-1 3-1.9 6.3-.6 9.1.9 1.9 2.7 3.2 4.6 4 1.9.8 4 .9 6.1 1 3.3.1 6.7 0 10-.4 2.2-.3 4.7-.9 5.5-3 .3-.9-.9-.2-1-1.2 0-.4-3.1-3-7.3-4.5-3.4-1.2-7.7-1.1-9-4-.4-.8-4.6-2.7-8.4-1.7"/>
        <path fill="url(#b)" d="M97.9 151.2c3.7-8.2 19-28.3 19-33.4 0-5.1 20.6-29.4 19.8-40.1-.8-10.7 25.6-27.6 26.4-31.8.8-4.2 2.2-15.2 9.3-23.1 7.1-7.9 8.4-17.6 18.1-21 5.2-1.8 16.8-1.8 23.1 2.4 16.4 10.9 17.2 43.7 2.5 61.5-8.9 9.2-42.7 31.2-50.7 43.8-8 12.5-16.9 12.2-23 27.9-6.1 15.7-12.7 3.6-18 33.9-5.3 30.3-30.3-11.9-26.5-20.1z" transform="translate(39 44)"/>
        <path fill="#474E71" d="M242.1 154.4s43.2 67.4 33.5 98.1C265.9 283.2 217 317 217 317l-7.5-.7s5.9-16.3 14.4-30.8c10.1-17.2 24.9-37.7 24.2-42.4-1.3-8.5-30.7-43.7-31.7-54.1-1-10.4 19.8-34.6 19.8-34.6h5.9z"/>
        <path fill="#525688" d="M246.2 151.7s-4.7 37-31.3 59.7C187.2 235 120 266.5 92.1 280.3 64.2 294 62.7 302.8 57.9 304c-4.8 1.2-11.1-8.3-11.1-9.9 0-1.6 91.2-70.5 91.9-73.3l.7-2.8 86.5-75.3 20.3 9z"/>
        <path fill="#FFF" d="M226.3 149.7s13.1 7.5 17.1 7c3.9-.6 9.7-25.5 10.8-26 1.2-.5 12.8-3.6 11.7-14.4-1.1-10.8-22.5-23.3-22.5-23.3l-17.1 56.7z"/>
        <path fill="#FDE3D9" d="M253.8 59.1c.4 1.8-4.2 3.8-7.8 4.3-1.6.2-3.2 2.3-4.5 4.7-.6 1-2.3-1.9-4.5 2.1-2 3.7 1.6 5.2 1.5 6.3-.1 1.9-1.6 5.3-3.7 7.8.1.1.3.1.4.2l-2.3 6.1c7.5-2.1 9.3 2.9 10.1 2.9.8 0 2.3-6 2.3-6 2.6.3 4.8-.1 6-1.6 0 0 8.2-9.6 3.5-26.3 0-.2-1.4-2.4-1-.5z"/>
        <path fill="#201D39" d="M238.7 130.6s-8.8-12.6-9.9-16.1c-1.1-3.5 6.6 17.2 9.9 20.3v-4.2z"/>
        <path fill="#D69465" d="M262 130.6s3.6 5.7 4.8 7.4c1.1 1.7 34.8-11.5 37-11.6 2.2-.1 3.2 2.7 3.2 2.7l-42.8 20-8.9-16.7 6.7-1.8z"/>
        <path fill="#FAA569" d="M307 129.1c-2.2.4-40.6 17.1-41.5 17.2-.9.2-20-34.4-21.1-34.7 0 0 5-5.2 0-15.4s-10.1-6.3-10.1-6.3-8.2 1.9-11.5 8.7c-.5.9-.8 2-1.1 3.1-3.1 8.7-11.7 32.8-14.9 37.4-4 5.7-18.1 21.7-27.3 27.1-9.2 5.5-14.8 10.9-19 23-4.2 12.1-22.7 24.2-27.1 26-4.4 1.8.6 12 13.9 16.4 13.3 4.4 20.7 5.8 30.6 2.1 9.9-3.7 34.9-28.5 40.1-40.7 5.2-12.1 10.3-36.9 10.3-36.9l4.4-25.9c9.9 14.4 23.7 28.8 30.8 30.8 10.7 2.9 47.8-27.9 47.8-27.9s-2.1-4.3-4.3-4z"/>
        <path fill="#6B5DFF" d="M437.5 209.2h44.9v10.1h-44.9z"/>
        <path fill="#6B5DFF" d="M437.5 225.6H575v5.3H437.5zM437.5 237.2h55v5.3h-55z" opacity=".3"/>
        <path fill="#6B5DFF" d="M437.5 150.2h44.9v10.1h-44.9z"/>
        <path fill="#6B5DFF" d="M437.5 166.6H575v5.3H437.5zM437.5 178.2h55v5.3h-55z" opacity=".3"/>
        <path fill="#6B5DFF" d="M437.5 259.2h44.9v10.1h-44.9z"/>
        <path fill="#6B5DFF" d="M437.5 275.6H575v5.3H437.5zM437.5 287.2h55v5.3h-55z" opacity=".3"/>
    </g>
</svg>
