<svg xmlns="http://www.w3.org/2000/svg" width="75" height="16" viewBox="0 0 75 16">
    <g fill="none" fill-rule="evenodd">
        <path fill="#5A5E69" d="M28.921 4.89v5.355h2.253v-2.21h.851v3.1H27v-.89h.883V4.89H27V4h2.804v.89h-.883zm7.839 3.026v2.348h.8v.871h-1.629v-.61c-.455.464-.962.696-1.52.696-.295 0-.564-.071-.808-.213a1.66 1.66 0 0 1-.587-.571 1.48 1.48 0 0 1-.221-.793c0-.313.08-.591.243-.836.163-.244.382-.433.658-.566.276-.132.554-.198.833-.198.467 0 .903.142 1.307.426v-.535c0-.389-.08-.666-.237-.834-.158-.167-.417-.25-.779-.25-.254 0-.468.048-.64.144a1.132 1.132 0 0 0-.425.438l-.901-.232a2.06 2.06 0 0 1 .824-.883c.346-.194.757-.291 1.233-.291.64 0 1.109.151 1.405.454.296.303.444.781.444 1.435zm-2.222 2.552c.461 0 .894-.2 1.298-.602v-.582c-.41-.331-.82-.497-1.23-.497a.93.93 0 0 0-.644.244.79.79 0 0 0-.27.613c0 .237.078.433.236.59a.83.83 0 0 0 .61.234zm5.7-.1c.421 0 .878-.213 1.37-.639V7.035h-.847v-.876h1.789v4.105h.82v.871h-1.762v-.572c-.553.438-1.078.658-1.575.658-.45 0-.781-.14-.995-.417-.214-.278-.321-.739-.321-1.383V7.035h-.67v-.876h1.612v3.466c0 .256.045.443.135.563.09.12.237.18.443.18zm8.248-2.58v2.476h.8v.871h-1.743V7.85c0-.312-.043-.536-.13-.672-.086-.136-.228-.204-.425-.204-.419 0-.89.215-1.411.644v2.647h.824v.871h-2.595v-.87h.842v-3.23h-.842v-.876h1.77v.601c.587-.445 1.137-.667 1.653-.667.428 0 .745.137.95.412.204.274.307.702.307 1.283zm5.025-1.27V6.16h.838v1.885h-.838c-.036-.363-.176-.64-.419-.831a1.324 1.324 0 0 0-.842-.287c-.273 0-.518.076-.735.227a1.486 1.486 0 0 0-.503.616 2.014 2.014 0 0 0-.177.847c0 .521.133.947.4 1.277.267.33.62.494 1.056.494.677 0 1.155-.326 1.434-.98l.783.388c-.44.992-1.193 1.487-2.258 1.487-.476 0-.9-.117-1.27-.35a2.339 2.339 0 0 1-.858-.961 3.007 3.007 0 0 1-.303-1.355c0-.486.103-.928.308-1.325.205-.398.486-.708.844-.93a2.222 2.222 0 0 1 1.197-.334c.522 0 .97.164 1.343.492zm4.762-.491c.889 0 1.333.5 1.333 1.5v2.737h.81v.871h-1.752V7.878c0-.357-.05-.608-.148-.753-.098-.145-.251-.218-.457-.218-.35 0-.803.213-1.361.64v2.717h.828v.871H54.9v-.87h.855V4.861H54.9V4h1.798v2.741c.564-.476 1.09-.714 1.575-.714zm7.72 2.869h-4.01c.057.476.235.853.532 1.13.298.275.662.413 1.093.413.315 0 .608-.067.878-.203s.496-.344.678-.625l.829.388a2.56 2.56 0 0 1-1.027.959 2.993 2.993 0 0 1-1.381.324c-.516 0-.974-.112-1.375-.336a2.38 2.38 0 0 1-.935-.937 2.737 2.737 0 0 1-.335-1.355c0-.498.11-.948.33-1.35a2.444 2.444 0 0 1 2.17-1.278c.503 0 .942.117 1.317.349.375.232.67.563.885.994.216.43.333.94.35 1.527zM63.457 6.84a1.33 1.33 0 0 0-.933.372c-.267.247-.438.575-.514.982h2.995a1.749 1.749 0 0 0-.56-.982 1.462 1.462 0 0 0-.988-.372zm4.99 2.296v1.127h1.042v.871h-2.936v-.87h.96v-3.23h-.96v-.876h1.707v1.127c.191-.445.428-.755.712-.93.284-.176.69-.263 1.218-.263h.214v.99h-.205c-.51 0-.89.069-1.138.208a1.01 1.01 0 0 0-.494.63c-.08.28-.12.686-.12 1.216zm5.38-2.765V6.16h.82v1.653h-.82v-.303c-.273-.408-.646-.611-1.12-.611-.249 0-.452.057-.61.17a.52.52 0 0 0-.237.44c0 .162.06.288.18.38.12.09.39.171.808.24l.633.129c.944.18 1.416.66 1.416 1.444 0 .457-.171.825-.512 1.103-.342.278-.795.417-1.36.417-.224 0-.445-.034-.662-.102a1.999 1.999 0 0 1-.543-.253v.27h-.838V9.43h.838v.17a.88.88 0 0 0 .384.578c.211.145.456.218.735.218.307 0 .548-.056.724-.168a.554.554 0 0 0 .264-.5.392.392 0 0 0-.21-.362c-.139-.08-.42-.163-.841-.249l-.487-.109c-.483-.1-.837-.274-1.061-.52-.225-.247-.337-.56-.337-.943 0-.309.083-.573.248-.793a1.54 1.54 0 0 1 .635-.494c.258-.111.524-.166.797-.166.458 0 .843.093 1.156.28z"/>
        <path fill="#B4B5FF" d="M7.815 10.695c1.446 0 2.618 1.187 2.618 2.652S9.261 16 7.815 16c-1.447 0-2.619-1.188-2.619-2.653s1.172-2.652 2.619-2.652"/>
        <path fill="#B4B5FF" d="M3.423 6.684c1.89 0 3.423 1.552 3.423 3.467S5.313 13.62 3.423 13.62C1.533 13.619 0 12.066 0 10.15s1.532-3.467 3.423-3.467"/>
        <path fill="#5C5D8D" d="M13.492 6.87c.813 1.707-1.17 5.678-2.086 4.554-.372-.455-.347-1.182-1.318-2.118-.001.006.354.064.769-.317.958-.748 2.635-2.112 2.635-2.118M10.079 3.05c-1.82-.836-6.038 1.159-4.836 2.097.487.381 1.26.36 2.262 1.353-.006.001-.07-.36.334-.78.79-.973 2.233-2.67 2.24-2.67"/>
        <path fill="#7578FF" d="M8.428 8.165c.54.544.702 1.44.163 1.984-.54.544-2.166 1.15-2.705.607-.54-.545.062-2.186.601-2.73.54-.545 1.402-.406 1.941.139"/>
        <path fill="#3A3B61" d="M9.277 2.86l-.079-.004c-.4.495-1.375 1.713-1.97 2.484-.244.268-.31.512-.324.656.116.081.236.175.36.283.03-.146.11-.349.31-.569.76-.984 2.147-2.706 2.153-2.706a1.92 1.92 0 0 0-.45-.144M13.504 6.898c-.238.202-1.743 1.452-2.637 2.165-.296.277-.558.33-.689.335.129.13.24.257.334.38.118.002.401-.036.72-.336.75-.597 1.922-1.566 2.424-1.987a1.996 1.996 0 0 0-.152-.557"/>
        <path fill="#5D61FF" d="M7.151 7.696c.075.341.306.747.665 1.11.357.361.757.594 1.093.671.057-.457-.13-.958-.48-1.312-.35-.353-.833-.531-1.278-.469"/>
        <path fill="#EBEBEB" d="M16.435.064c.271.26-.128 4.119-2.732 6.739-1.612 1.622-2.681 2.25-2.937 2.475-.708.325-1.177.5-2.58-.912-1.399-1.408-1.13-1.798-.82-2.473.231-.262.869-1.35 2.481-2.972C12.45.3 16.151-.191 16.435.064"/>
        <path fill="#5C5D8D" d="M13.056 3.48c.561.57.561 1.494 0 2.063-.561.57-1.471.57-2.033 0a1.474 1.474 0 0 1 0-2.062 1.422 1.422 0 0 1 2.033 0"/>
        <path fill="#CCD0D2" d="M12.553 3.997a.733.733 0 0 1 0 1.032.721.721 0 0 1-1.025 0 .733.733 0 0 1 0-1.032.721.721 0 0 1 1.025 0"/>
        <path fill="#B4B5FF" d="M11.34 10.151c1.003 0 1.815.823 1.815 1.839a1.826 1.826 0 0 1-1.814 1.838 1.826 1.826 0 0 1-1.815-1.838c0-1.016.812-1.839 1.815-1.839"/>
    </g>
</svg>
