<svg xmlns="http://www.w3.org/2000/svg" width="35" height="33" viewBox="0 0 35 33">
    <g fill="none" fill-rule="evenodd">
        <path fill="#B4B5FF" d="M16.549 22.057c3.062 0 5.545 2.45 5.545 5.472 0 3.021-2.483 5.471-5.545 5.471-3.063 0-5.546-2.45-5.546-5.471 0-3.022 2.483-5.472 5.546-5.472"/>
        <path fill="#B4B5FF" d="M7.248 13.786c4.003 0 7.249 3.202 7.249 7.151 0 3.95-3.246 7.152-7.249 7.152S0 24.887 0 20.937s3.245-7.151 7.248-7.151"/>
        <path fill="#5C5D8D" d="M28.572 14.17c1.72 3.52-2.477 11.71-4.419 9.393-.787-.94-.735-2.439-2.79-4.369-.003.012.749.131 1.628-.654 2.03-1.543 5.581-4.356 5.581-4.37M21.343 6.29c-3.855-1.724-12.785 2.391-10.24 4.327 1.032.784 2.669.741 4.79 2.788-.014.004-.147-.741.707-1.61a315.695 315.695 0 0 1 4.743-5.505"/>
        <path fill="#7578FF" d="M17.848 16.84c1.142 1.122 1.486 2.969.344 4.092-1.142 1.123-4.586 2.374-5.728 1.251-1.142-1.123.131-4.508 1.273-5.63 1.142-1.123 2.969-.837 4.11.287"/>
        <path fill="#3A3B61" d="M19.645 5.9l-.166-.009a367.378 367.378 0 0 0-4.173 5.123c-.517.553-.657 1.056-.687 1.353.247.168.502.36.765.582.064-.3.233-.718.655-1.171a319.97 319.97 0 0 1 4.56-5.582 4.145 4.145 0 0 0-.954-.296M28.596 14.227c-.503.417-3.69 2.995-5.583 4.466-.626.572-1.182.679-1.46.69.273.27.508.53.708.783.25.004.85-.073 1.526-.69a355.245 355.245 0 0 0 5.132-4.1 4.034 4.034 0 0 0-.323-1.15"/>
        <path fill="#5D61FF" d="M15.144 15.874c.159.703.647 1.54 1.408 2.289.756.745 1.602 1.224 2.314 1.384.12-.944-.276-1.977-1.018-2.707-.74-.727-1.763-1.095-2.704-.966"/>
        <path fill="#EBEBEB" d="M34.803.132c.575.536-.271 8.495-5.785 13.899-3.414 3.346-5.678 4.642-6.22 5.105-1.498.67-2.493 1.03-5.462-1.88-2.963-2.905-2.393-3.71-1.736-5.102.488-.54 1.838-2.783 5.253-6.13C26.363.621 34.202-.394 34.803.132"/>
        <path fill="#5C5D8D" d="M27.649 7.179a2.985 2.985 0 0 1 0 4.254 3.07 3.07 0 0 1-4.305 0 2.985 2.985 0 0 1 0-4.254 3.068 3.068 0 0 1 4.305 0"/>
        <path fill="#CCD0D2" d="M26.583 8.245c.599.587.599 1.54 0 2.127a1.557 1.557 0 0 1-2.17 0 1.484 1.484 0 0 1 0-2.127 1.557 1.557 0 0 1 2.17 0"/>
        <path fill="#B4B5FF" d="M24.015 20.937c2.123 0 3.843 1.698 3.843 3.791 0 2.094-1.72 3.792-3.843 3.792-2.122 0-3.842-1.698-3.842-3.792 0-2.093 1.72-3.79 3.842-3.79"/>
    </g>
</svg>
