<svg xmlns="http://www.w3.org/2000/svg" xmlns:xlink="http://www.w3.org/1999/xlink" width="213" height="63" viewBox="0 0 213 63">
    <defs>
        <path id="a" d="M0 .115h212.455v62.75H0z"/>
        <path id="c" d="M0 .115h212.455v62.75H0z"/>
        <path id="e" d="M0 62.865h212.455V.115H0z"/>
        <path id="g" d="M.028 2.875v34.802c0 2.485 1.752 3.503 3.913 2.274L34.62 22.5c2.161-1.23 2.16-3.222 0-4.451L3.94.6C3.32.248 2.731.08 2.208.08.917.08.028 1.104.028 2.874"/>
        <linearGradient id="h" x1="100%" x2="61.087%" y1="50%" y2="50%">
            <stop offset="0%" stop-color="#FBDA08"/>
            <stop offset="100%" stop-color="#FFBC00"/>
        </linearGradient>
        <path id="j" d="M.028 2.16v34.802c0 .864.212 1.551.579 2.027l19.365-19.752L.672.054C.264.532.027 1.247.027 2.16"/>
        <linearGradient id="k" x1="-1.977%" x2="67.33%" y1="51.41%" y2="32.018%">
            <stop offset="0%" stop-color="#01E2FF"/>
            <stop offset="100%" stop-color="#01C3FF"/>
        </linearGradient>
        <path id="m" d="M.1.767l19.298 19.19 6.725-6.415L3.37.601C2.747.247 2.16.079 1.637.079 1.012.08.482.32.1.767"/>
        <linearGradient id="n" x1="21.789%" x2="85.328%" y1="18.594%" y2="82.113%">
            <stop offset="0%" stop-color="#28D680"/>
            <stop offset="100%" stop-color="#02EF75"/>
        </linearGradient>
        <path id="p" d="M.133 19.783c.679.948 1.938 1.128 3.38.308L26.444 7.048l-6.9-6.955L.133 19.783z"/>
        <linearGradient id="q" x1="81.286%" x2="16.906%" y1="23.364%" y2="97.118%">
            <stop offset="0%" stop-color="#F2414D"/>
            <stop offset="100%" stop-color="#DF2454"/>
        </linearGradient>
    </defs>
    <g fill="none" fill-rule="evenodd">
        <g transform="translate(0 .028)">
            <path fill="#000" d="M7.858.83h196.74a7.144 7.144 0 0 1 7.143 7.143v47.034a7.144 7.144 0 0 1-7.144 7.144H7.858a7.144 7.144 0 0 1-7.144-7.144V7.973A7.144 7.144 0 0 1 7.858.829"/>
            <mask id="b" fill="#fff">
                <use xlink:href="#a"/>
            </mask>
            <path fill="#A6A6A6" d="M7.858 1.544a6.437 6.437 0 0 0-6.43 6.429v47.034a6.437 6.437 0 0 0 6.43 6.43h196.74a6.437 6.437 0 0 0 6.428-6.43V7.973a6.437 6.437 0 0 0-6.429-6.43H7.858zm196.74 61.321H7.857C3.525 62.865 0 59.34 0 55.007V7.973C0 3.64 3.525.115 7.858.115h196.74c4.332 0 7.857 3.525 7.857 7.858v47.034c0 4.333-3.525 7.858-7.858 7.858z" mask="url(#b)"/>
            <mask id="d" fill="#fff">
                <use xlink:href="#c"/>
            </mask>
            <path fill="#8F8F8F" d="M7.5.83A6.794 6.794 0 0 0 .715 7.615v47.748a6.794 6.794 0 0 0 6.787 6.787h197.453a6.794 6.794 0 0 0 6.787-6.787V7.616a6.794 6.794 0 0 0-6.787-6.787H7.501zm197.454 62.035H7.501C3.365 62.865 0 59.5 0 55.364V7.616C0 3.48 3.365.115 7.5.115h197.454c4.136 0 7.501 3.365 7.501 7.5v47.749c0 4.136-3.365 7.501-7.5 7.501z" mask="url(#d)"/>
            <path fill="#FFF" d="M112.586 19.403a3.572 3.572 0 1 0 0-7.144 3.572 3.572 0 0 0 0 7.144m0 1.572a5.144 5.144 0 1 1 0-10.288 5.144 5.144 0 0 1 0 10.288M77.724 16.403v3.143h4.143v1.143h-5.715v-9.573h5.715v1.143h-4.143v3h3.715v1.144zM87.44 12.26v8.429h-1.572v-8.43h-2.429v-1.143h6.43v1.143zM101.441 12.26v8.429H99.87v-8.43h-2.43v-1.143h6.43v1.143z"/>
            <mask id="f" fill="#fff">
                <use xlink:href="#e"/>
            </mask>
            <path fill="#FFF" d="M94.44 20.689h1.572v-9.573H94.44zM120.587 11.116h.285l4.287 7.005v-7.005h1.571v9.573h-1.571l-4.572-7.471v7.47h-1.572v-9.572zM70.264 15.427h4.303l-.043 1.362h-4.26z" mask="url(#f)"/>
            <path fill="#FFF" d="M73.72 12.222l-.985.984c-.614-.627-1.486-.971-2.493-.971a3.64 3.64 0 0 0-3.642 3.639 3.64 3.64 0 0 0 3.642 3.638c2.012 0 3.44-1.161 3.437-3.638.004-.153 0-.302-.01-.447h1.257v.05c.473 3.468-1.891 5.465-4.726 5.44a5.048 5.048 0 0 1-5.049-5.043A5.046 5.046 0 0 1 70.2 10.83c1.457 0 2.682.51 3.52 1.392M155.877 31.235v6.599h5.498s2.503 0 2.503-3.3c0-3.299-2.503-3.299-2.503-3.299h-5.498zm-1.572-2.974h8.1s4.663.794 4.663 6.148c0 5.355-4.663 6.148-4.663 6.148h-8.1V28.261z" mask="url(#f)"/>
            <path fill="#FFF" d="M153.59 48.264h2.858V28.26h-2.857zM168.735 48.264h2.858V28.26h-2.858zM181.98 42.55s-5.505-1.485-5.696 1.608c-.192 3.092 5.28 1.608 5.77-.585 0-.697-.074-1.024-.074-1.024zm.204 4.284c-.787.649-2.045 1.26-4.033 1.384-4.553.285-4.555-3.87-4.555-4.15 0-.28-.225-3.669 3.397-4.207 2.565-.382 4.36.254 5.191.657v-.587c-.204-.779-.835-2.209-2.73-2.209-2.601 0-3.176 1.407-3.176 1.407l-2.38-1.407s1.332-2.746 5.329-2.746c4.969 0 5.815 3.428 5.815 4.582v8.699h-2.858v-1.423zM190.403 47.505l-5.094-12.1h2.858l3.665 8.706 3.637-8.637h2.857l-7.73 18.362h-2.858zM143.755 39.023s-1.137-1.73-2.88-1.411c-3.69.675-3.225 3.902-3.225 3.902l6.105-2.491zm3.439 1.058l-9.038 3.735s.584 2.065 3.3 2.08c2.129.01 3.33-1.887 3.33-1.887l2.293 1.553s-1.85 2.993-5.64 2.993c-4.657 0-6.708-4.072-6.708-6.717 0-2.547 1.628-6.862 6.419-6.862 4.79 0 6.043 5.105 6.043 5.105zM130.445 48.222h3.023v-19.96h-3.023zM122.07 45.975c2.038 0 3.69-1.866 3.69-4.17 0-2.302-1.652-4.169-3.69-4.169-2.038 0-3.69 1.867-3.69 4.17s1.652 4.17 3.69 4.17zm3.537-10.565l2.795.024V48.03c0 3.218-1.916 6.614-6.426 6.614s-5.967-3.996-5.967-3.996l2.566-1.08s.783 2.464 3.534 2.464c3.133 0 3.499-2.85 3.499-3.826v-1.367s-1.084 1.697-3.777 1.697c-2.92 0-6.388-2.501-6.388-6.765 0-4.264 3.266-6.703 6.422-6.792 2.527-.07 3.742 1.678 3.742 1.678V35.41zM107.341 45.888c2.112 0 3.824-1.847 3.824-4.125s-1.712-4.125-3.824-4.125c-2.111 0-3.823 1.847-3.823 4.125s1.712 4.125 3.823 4.125m.045 2.661c-3.757 0-6.802-3.038-6.802-6.786 0-3.748 3.045-6.787 6.802-6.787 3.757 0 6.802 3.039 6.802 6.787 0 3.748-3.045 6.786-6.802 6.786M92.625 45.888c2.112 0 3.824-1.847 3.824-4.125s-1.712-4.125-3.824-4.125c-2.111 0-3.823 1.847-3.823 4.125s1.712 4.125 3.823 4.125m.045 2.661c-3.757 0-6.802-3.038-6.802-6.786 0-3.748 3.045-6.787 6.802-6.787 3.756 0 6.802 3.039 6.802 6.787 0 3.748-3.046 6.786-6.802 6.786M75.106 37.128h8.98l-.088 2.839h-8.892z" mask="url(#f)"/>
            <path fill="#FFF" d="M82.32 30.448l-2.056 2.05c-1.281-1.307-3.102-2.024-5.202-2.024-4.199 0-7.602 3.396-7.602 7.585 0 4.19 3.403 7.585 7.602 7.585 4.198 0 7.18-2.421 7.173-7.585.007-.319 0-.63-.022-.931h2.624v.105c.987 7.23-3.948 11.392-9.864 11.339-5.82-.008-10.536-4.707-10.536-10.513 0-5.805 4.717-10.512 10.536-10.512 3.042 0 5.598 1.06 7.346 2.901" mask="url(#f)"/>
        </g>
        <g transform="translate(15.573 11.172)">
            <mask id="i" fill="#fff">
                <use xlink:href="#g"/>
            </mask>
            <path fill="url(#h)" d="M.028 2.875v34.802c0 2.485 1.752 3.503 3.913 2.274L34.62 22.5c2.161-1.23 2.16-3.222 0-4.451L3.94.6C3.32.248 2.731.08 2.208.08.917.08.028 1.104.028 2.874" mask="url(#i)"/>
        </g>
        <g transform="translate(15.573 11.887)">
            <mask id="l" fill="#fff">
                <use xlink:href="#j"/>
            </mask>
            <path fill="url(#k)" d="M.028 2.16v34.802c0 .864.212 1.551.579 2.027l19.365-19.752L.672.054C.264.532.027 1.247.027 2.16" mask="url(#l)"/>
        </g>
        <g transform="translate(16.145 11.172)">
            <mask id="o" fill="#fff">
                <use xlink:href="#m"/>
            </mask>
            <path fill="url(#n)" d="M.1.767l19.298 19.19 6.725-6.415L3.37.601C2.747.247 2.16.079 1.637.079 1.012.08.482.32.1.767" mask="url(#o)"/>
        </g>
        <g transform="translate(16.002 31.032)">
            <mask id="r" fill="#fff">
                <use xlink:href="#p"/>
            </mask>
            <path fill="url(#q)" d="M.133 19.783c.679.948 1.938 1.128 3.38.308L26.444 7.048l-6.9-6.955L.133 19.783z" mask="url(#r)"/>
        </g>
    </g>
</svg>
